<?xml version="1.0" encoding="UTF-8" standalone="no"?>
<svg xmlns="http://www.w3.org/2000/svg" xmlns:xlink="http://www.w3.org/1999/xlink" width="45mm" height="90mm" viewBox="0 0 45 90">
  <defs>
    <path id="a" fill="#1780ce" d="M86.253906 798.53906a118.20118 118.20118 0 0 0-7.417968 5.30469 118.20118 118.20118 0 0 0-2.617188 2.29883 118.20118 118.20118 0 0 1 8.523438 7.93945 118.20118 118.20118 0 0 1 7.796874 8.87695 118.20118 118.20118 0 0 1 6.873047 9.61133 118.20118 118.20118 0 0 1 5.878911 10.24805 118.20118 118.20118 0 0 1 4.82617 10.78516 118.20118 118.20118 0 0 1 3.72656 11.21289 118.20118 118.20118 0 0 1 2.58594 11.52734 118.20118 118.20118 0 0 1 1.42383 11.72852 118.20118 118.20118 0 0 1 .29687 8.36132 118.20118 118.20118 0 0 1-.58984 11.80079 118.20118 118.20118 0 0 1-1.76563 11.68359 118.20118 118.20118 0 0 1-2.92383 11.44726 118.20118 118.20118 0 0 1-4.05078 11.09961 118.20118 118.20118 0 0 1-5.14062 10.63868 118.20118 118.20118 0 0 1-6.175784 10.07226 118.20118 118.20118 0 0 1-7.15039 9.40625 118.20118 118.20118 0 0 1-8.052735 8.64453 118.20118 118.20118 0 0 1-6.259765 5.5 118.20118 118.20118 0 0 0 .123046.11328 118.20118 118.20118 0 0 0 9.40625 7.15039 118.20118 118.20118 0 0 0 .615235.37696 130.60275 130.60275 0 0 0 4.806641-4.22266 130.60275 130.60275 0 0 0 8.898437-9.55078 130.60275 130.60275 0 0 0 7.900395-10.39258 130.60275 130.60275 0 0 0 6.82421-11.13086 130.60275 130.60275 0 0 0 5.67774-11.7539 130.60275 130.60275 0 0 0 4.47656-12.26368A130.60275 130.60275 0 0 0 128 922.4043a130.60275 130.60275 0 0 0 1.95117-12.90821 130.60275 130.60275 0 0 0 .65235-13.03906 130.60275 130.60275 0 0 0-.32813-9.23828 130.60275 130.60275 0 0 0-1.57227-12.96094 130.60275 130.60275 0 0 0-2.85937-12.73633 130.60275 130.60275 0 0 0-4.11719-12.39062 130.60275 130.60275 0 0 0-5.33203-11.91602 130.60275 130.60275 0 0 0-6.49609-11.32226 130.60275 130.60275 0 0 0-7.59375-10.61914 130.60275 130.60275 0 0 0-8.615237-9.8086 130.60275 130.60275 0 0 0-7.435547-6.92578z"/>
    <path id="b" fill="#dd1d1d" d="M66.164062 798.55664a118.20118 118.20118 0 0 1 7.41796 5.30469 118.20118 118.20118 0 0 1 2.61719 2.29883 118.20118 118.20118 0 0 0-8.52344 7.93945 118.20118 118.20118 0 0 0-7.79687 8.87695 118.20118 118.20118 0 0 0-6.87305 9.61133 118.20118 118.20118 0 0 0-5.87891 10.24805 118.20118 118.20118 0 0 0-4.826168 10.78516 118.20118 118.20118 0 0 0-3.72656 11.21289 118.20118 118.20118 0 0 0-2.58594 11.52734 118.20118 118.20118 0 0 0-1.42383 11.72852 118.20118 118.20118 0 0 0-.29687 8.36132 118.20118 118.20118 0 0 0 .58984 11.80079 118.20118 118.20118 0 0 0 1.76563 11.68359 118.20118 118.20118 0 0 0 2.92383 11.44726 118.20118 118.20118 0 0 0 4.05078 11.09961 118.20118 118.20118 0 0 0 5.140618 10.63868 118.20118 118.20118 0 0 0 6.17579 10.07226 118.20118 118.20118 0 0 0 7.15039 9.40625 118.20118 118.20118 0 0 0 8.05273 8.64453 118.20118 118.20118 0 0 0 6.25977 5.5 118.20118 118.20118 0 0 1-.12305.11328 118.20118 118.20118 0 0 1-9.40625 7.15039 118.20118 118.20118 0 0 1-.61523.37696 130.60275 130.60275 0 0 1-4.80665-4.22266 130.60275 130.60275 0 0 1-8.89843-9.55078 130.60275 130.60275 0 0 1-7.900398-10.39258 130.60275 130.60275 0 0 1-6.82421-11.13086 130.60275 130.60275 0 0 1-5.67774-11.7539 130.60275 130.60275 0 0 1-4.476559-12.26368 130.60275 130.60275 0 0 1-3.23047-12.64843 130.60275 130.60275 0 0 1-1.95117-12.90821 130.60275 130.60275 0 0 1-.65235-13.03906 130.60275 130.60275 0 0 1 .32813-9.23828 130.60275 130.60275 0 0 1 1.57227-12.96094 130.60275 130.60275 0 0 1 2.85937-12.73633 130.60275 130.60275 0 0 1 4.11719-12.39062 130.60275 130.60275 0 0 1 5.332029-11.91602 130.60275 130.60275 0 0 1 6.49609-11.32226 130.60275 130.60275 0 0 1 7.593748-10.61914 130.60275 130.60275 0 0 1 8.61524-9.8086 130.60275 130.60275 0 0 1 7.43555-6.92578z"/>
    <path id="c" fill="none" stroke="#000" d="m45.500147 846.16024-11.399483-4.98728m-1.350882 107.61418 11.412093-4.99279m1.341753 2.95728-11.416229 4.9946m-1.32492-107.61442 11.396588 4.986"/>
    <path id="d" fill="none" stroke="#000" stroke-linecap="round" stroke-linejoin="round" d="m44.159067 849.11781-14.26904 2.14587 9.45919 10.90146-13.922517 3.80677 10.67984 9.71499-13.383826 5.4159 11.750345 8.39256-12.658603 6.95134 12.657141 6.95332-11.756015 8.39131 13.387988 5.41736-10.689632 9.71533 13.933041 3.80604-9.475289 10.90515 14.290193 2.15913"/>
    <path id="e" fill="none" stroke="#000" stroke-linecap="round" stroke-linejoin="round" stroke-width=".99921262" d="m108.26657 849.1178 14.26904 2.14587-9.45919 10.90146 13.92252 3.80677-10.67984 9.71499 13.38383 5.4159-11.75035 8.39256 12.6586 6.95134-12.65714 6.95332 11.75602 8.39131-13.38799 5.41736 10.68963 9.71533-13.93304 3.80604 9.47529 10.90515-14.29019 2.15913"/>
    <path id="f" d="M76.181641 792.67383c-1.095639 1.85246-.812035 3.76576 0 5.70117zm.02734 0v5.70117c.812035-1.93541 1.095639-3.84871 0-5.70117zm-.027877 11.40234c-1.095639-1.85246-.812035-3.76576 0-5.70117zm.02734 0V798.375c.812035 1.93541 1.095639 3.84871 0 5.70117z"/>
    <path id="g" d="M81.910157 798.3477c-1.852461-1.09564-3.76576-.81203-5.701171 0zm0 .0273h-5.701171c1.935411.81203 3.84871 1.09564 5.701171 0zm-11.430224 0c1.852461-1.09564 3.76576-.81203 5.701171 0zm0 .0273h5.701171c-1.935411.81203-3.84871 1.09564-5.701171 0z"/>
    <path id="h" fill="#dd1d1d" stroke="#000" stroke-linecap="round" stroke-linejoin="round" stroke-width=".99921262" d="M127.75726 1012.1759c-14.8314-3.185-28.911072-9.1951-41.47061-17.70236v0l-10.008813 8.13516v0c7.178348 5.1669 14.862984 9.5912 22.935577 13.2049 5.201726 1.4536 9.810376 1.5233 14.313206 1.3461 9.34219-1.2934 10.20522-3.2651 14.23064-4.9838"/>
    <path id="i" fill="#1780ce" stroke="#000" stroke-linecap="round" stroke-linejoin="round" stroke-width=".99921262" d="M24.701685 780.80539c14.8314 3.185 28.911068 9.1951 41.470606 17.70235v0l10.008813-8.13515v0c-7.178348-5.1669-14.862984-9.5912-22.935577-13.2049-5.201722-1.4536-9.810372-1.5233-14.313202-1.3461-9.34219 1.2934-10.20522 3.2651-14.23064 4.9838"/>
    <path id="j" d="M68.664627 833.10703c2.519732-1.35446 5.087527-1.64285 7.51648-5.01099 2.428959 3.36814 4.996754 3.65653 7.516489 5.011-1.354464-2.51974-1.642859-5.08753-5.010997-7.51649 3.368133-2.42896 3.656525-4.99675 5.010988-7.51648-2.519733 1.35446-5.087527 1.64286-7.51648 5.01099-2.428963-3.36814-4.996757-3.65653-7.51649-5.011 1.354456 2.51974 1.642858 5.08753 5.010991 7.5165-3.368126 2.42895-3.656519 4.99674-5.010981 7.51647z"/>
    <path id="k" fill-rule="evenodd" stroke="#000" stroke-linejoin="round" stroke-width=".2820028" d="m108.14618619 243.05840466-1.2418253-.6990691.46171566 1.3479327.80957925.18050782z"/>
    <path id="l" fill="#dd1d1d" fill-rule="evenodd" stroke="#000" stroke-width=".28222224" d="m108.66819 250.56941 3.12526 3.75741.18978-5.86131-3.12526-3.7574z"/>
    <path id="m" fill="none" stroke="#000" stroke-width=".28222221" d="m114.14145 251.06029-5.9658-7.17251"/>
    <path id="n" fill="none" stroke="#000" stroke-width=".082" d="m113.59944 256.49812.18978-5.8613m-.54201 5.43782.18978-5.8613m-.542 5.43781.18978-5.8613m-.54203 5.43782.18978-5.8613m-1.24648 4.59087.18978-5.8613m.51469 6.70826.18978-5.8613m-1.24648 4.59087.18978-5.8613m-.54201 5.43781.18978-5.8613m-.54201 5.43782.18978-5.8613m-.54201 5.43782.18978-5.8613m-.54201 5.43783.18978-5.8613m-.54202 5.43782.18978-5.8613m-.542 5.43781.18978-5.8613"/>
    <path id="o" fill="none" stroke-width=".6575253" d="M58.464568 896.45669H38.976379"/>
    <path id="p" fill-rule="evenodd" stroke-linejoin="round" stroke-width=".65700758" d="m37.605044 895.39614-2.78154 1.06055 2.78154 1.05906 1.371335-1.05906z"/>
    <path id="q" fill="#1780ce" fill-rule="evenodd" stroke-width=".28222224" d="M108.03539 247.33009s-.31487 3.54991-.18812 5.44418c.0753 1.12555.16774 2.13345.44098 3.22792.16933.67829.46298 1.71238.75847 2.34597.34824.74671.69503 1.54544 1.30528 2.09903.42261.38337.97799.6328 1.53458.75847.38431.0868.80422.0948 1.1818-.0176.32673-.0973.65878-.23617.92667-.44702.20585-.16202.377-.41643.50209-.64659.0655-.12056.079-.26669.0795-.40391.009-2.41866-1.34731-7.12984-1.34731-7.12984z"/>
    <path id="r" fill="none" stroke-linecap="round" stroke-linejoin="bevel" stroke-width=".08199897" d="M108.03537968 247.33018707c-.00185208.02177521-.31447052 3.55565335-.18811081 5.44407983.07530042 1.12555071.16774054 2.13344916.44098104 3.22791927.16932804.67829112.4629785 1.71238067.7584678 2.34597043.34824193.74670972.6950313 1.54543917 1.30528217 2.09902951.42260837.38337067.97798995.6328013 1.53457802.75847045.38430994.08679921.80421956.09480021 1.18180113-.01759479.32672867-.09730052.65878075-.23616972.92666872-.44701883.20585112-.16202024.3769995-.41643034.50209185-.64659138.06550025-.12056004.07949935-.26668942.07949935-.40391027v-3.1660491m-6.54125133-9.19440566s-.00000265.0000344-.00000794.00010054"/>
    <path id="s" fill="none" stroke-linecap="round" stroke-linejoin="bevel" stroke-width=".08199897" d="M108.34428336 247.66076807c-.07353829 1.00609663-.2356379 3.51914879-.1424543 5.00859948.07040033 1.12554807.15682912 2.13344916.41231078 3.22791927.15832931.67829111.43289008 1.71238066.709168 2.34597043.32560947.74670972.64986163 1.54543916 1.22044087 2.09902951.39513933.38337066.91442116.63279866 1.4348301.75847045.35933063.0867992.75194848.0948002 1.10498995-.0175948.30549056-.09730051.61595-.23616972.86643103-.44702146.1924685-.16202025.35249908-.4164277.46945814-.64658875.06120077-.12056004.0743003-.26668941.0743003-.40391026v-3.1660491"/>
    <path id="t" fill="none" stroke-linecap="round" stroke-linejoin="bevel" stroke-width=".08199897" d="M108.66257446 247.95850898c-.07358856 1.16743426-.1829382 3.2876516-.1061958 4.60596715.06550024 1.12555072.14593887 2.1334518.38365905 3.22792192.14731206.67828847.40279108 1.71237802.65987083 2.34596778.30296908.74670972.6046708 1.54544182 1.135589 2.09903216.36767029.38336802.85085237.63279866 1.3350822.7584678.33434866.08680186.69968003.09480021 1.02816817-.01759479.2842604-.09729787.5731404-.23616972.80620128-.44701882.17908852-.16202025.32798808-.41643035.43681914-.6465914.05699919-.12056003.06919912-.2666894.06919912-.40390761v-3.16605175"/>
    <path id="u" fill="none" stroke-linecap="round" stroke-linejoin="bevel" stroke-width=".08199897" d="M108.98512271 248.28373746c-.06469856 1.20663492-.13716264 3.00662177-.07418387 4.17583932.06060016 1.12555071.1350301 2.13344916.3549888 3.22791927.13631069.67829112.37270002 1.71238067.61057102 2.34597043.28032868.74670972.55950114 1.54543917 1.05075036 2.09902951.3401986.38337067.78727828.6328013 1.23533957.75847045.30936935.08679921.64739043.0948002.95134905-.01759479.2630117-.09730052.53030966-.23616973.74597153-.44701883.1657006-.16202024.30347973-.41643035.40418014-.64659138.0526997-.12056004.06400006-.26668942.06400006-.40391027v-3.1660544"/>
    <path id="v" fill="none" stroke-linecap="round" stroke-linejoin="bevel" stroke-width=".08199897" d="M109.3130764 248.61729237c-.05253832 1.17425521-.09879807 2.70276898-.0475668 3.73738505.05570009 1.12554807.12412927 2.13344917.32632914 3.22791928.12530138.67829111.34260102 1.71238066.56126062 2.34597043.25769887.74670972.51432883 1.54543916.96590907 2.09902951.31272956.38337066.7237095.6328013 1.13559166.75847045.28439003.0867992.59511934.0948002.87452992-.0175948.2417789-.09730051.48750008-.23616972.68573914-.44702147.1523312-.1620176.2789793-.4164277.37154114-.64658874.04849812-.12056004.05879835-.26668941.05879835-.40391026v-3.1660491"/>
    <path id="w" fill="none" stroke-linecap="round" stroke-linejoin="bevel" stroke-width=".08199897" d="M109.64629 248.95713113c-.039751 1.09566074-.0672518 2.38445143-.02622021 3.29265488.0508 1.12555071.1132205 2.1334518.29765889 3.22792192.1143.67828847.31250995 1.71237802.51197139 2.34596778.23505847.74670972.469138 1.54544181.88105984 2.09903216.28526052.38336802.66013805.63279866 1.03583845.7584678.25941072.08680186.5428509.09480021.79772138-.01759479.22053814-.09729787.44466933-.23616972.6254988-.44701882.13895123-.16202025.25447096-.41643035.33891008-.64658875.0442013-.12056004.05369984-.26669206.05369984-.40391026v-3.16605175"/>
    <path id="x" fill="none" stroke-linecap="round" stroke-linejoin="bevel" stroke-width=".08199897" d="M109.9842608 249.31379475c-.0275246.9814216-.04161366 2.04780354-.00963083 2.8310919.04589991 1.12555072.10231966 2.13344917.26898864 3.22791928.10329069.67829111.28242154 1.71238066.46267158 2.34597043.21242866.74670972.42396833 1.54543917.79621855 2.09902951.25779148.38337066.59656926.6328013.93609053.75847045.23442877.0867992.49057983.0948002.72089962-.01759479.19931062-.09730052.40185974-.23616973.56526905-.44701883.12557125-.16202025.22997054-.41643035.30628167-.64659139.03989916-.12056004.04850077-.2666894.04850077-.40391026v-3.1660491"/>
    <path id="y" fill="none" stroke-linecap="round" stroke-linejoin="bevel" stroke-width=".08199897" d="M110.3270338 249.68451304c-.01680104.83947-.02185459 1.69738408.00211666 2.35547426.04099984 1.12555072.09140032 2.13344916.24033956 3.22791928.0922999.67829111.2523199 1.71238066.41336119 2.34597042.18978826.74670972.37878807 1.54543917.7113799 2.09902952.2303198.38337066.53300841.6328013.83634791.75847045.2094521.0867992.4383008.0948002.6440805-.0175948.17806986-.09730051.35903163-.23616972.50503136-.44702147.11218862-.1620176.20547012-.4164277.27364002-.64658874.03570023-.12056004.04329906-.26668941.04329906-.40391026v-3.16604911"/>
    <path id="z" fill="none" stroke-linecap="round" stroke-linejoin="bevel" stroke-width=".08199897" d="M110.67461956 250.05979275c-.00833437.67885732-.00799041 1.34255931.00910167 1.87530314.03609975 1.12555071.08049948 2.1334518.21166931 3.22792192.08130117.67828847.22222883 1.71237802.3640693 2.34596778.16715053.74671236.33361048 1.54544181.62653069 2.09903216.20285075.38336802.46943962.63279866.73659999.7584678.18447014.08680186.38601914.09480021.56726137-.01759479.15682912-.09729787.3162194-.23616972.44479897-.44701883.0988007-.16202024.18095912-.41643034.24100896-.64658874.03140074-.12056004.03820054-.26669206.03820054-.40391026v-3.16605176"/>
    <path id="A" fill="none" stroke-linecap="round" stroke-linejoin="bevel" stroke-width=".08199897" d="M111.02710277 250.34650583c-.00328084.53924199-.00079375 1.05405236.01116541 1.4836907.03120232 1.12555072.0696013 2.13344917.18300171 3.22791928.0702998.67829111.19214041 1.71238066.3147695 2.34597043.1445207.74670972.2884408 1.54544181.54168939 2.09902951.1753817.38337066.40587082.6328013.63684942.75847045.15949084.0867992.3337507.0948002.49045019-.0175948.13559102-.09730051.2733913-.23616972.38457187-.44701882.08539956-.16202025.15644812-.41643035.20835937-.64659139.02719917-.12056004.03299883-.26668941.03299883-.40391026v-3.1660491"/>
    <path id="B" fill="none" stroke-linecap="round" stroke-linejoin="bevel" stroke-width=".08199897" d="M111.38233235 250.70182007c.0001905.36964937.00333375.7180818.01055687 1.02347711.02640542 1.12555072.05870046 2.13344916.1543394 3.22791927.05930106.67829112.16203876 1.71238067.2654591 2.34597043.1218909.74670972.24326056 1.54543917.45685074 2.09902952.14791002.38337066.3422994.6328013.53709887.75847045.13451152.0867992.28148227.0948002.41363106-.0175948.11436085-.09730051.23057908-.23616972.32433947-.44701882.0721016-.16202025.13195035-.41643035.17573096-.64659139.02288646-.12056004.02779977-.26668941.02779977-.40391027v-3.1660491"/>
    <path id="C" fill="none" stroke-linecap="round" stroke-linejoin="bevel" stroke-width=".08199897" d="M111.74047234 251.05685121c.00132292.19925506.0036248.38847712.00695854.56355456.02151063 1.12555071.04779963 2.1334518.12567973 3.22792192.04830233.67828847.13195035 1.71237802.21617252 2.34596778.09919758.74671236.19807766 1.54544181.37199887 2.09903216.12044098.38336802.2787306.63279866.43735889.7584678.10952162.08680186.2292006.0948002.33681193-.01759479.09309894-.09730052.18774833-.23617237.26409915-.44702147.05870045-.16202025.10744993-.41643035.14309989-.64658874.01870604-.12056004.02270125-.26669206.02270125-.40391027v-3.16605175"/>
    <path id="D" fill="none" stroke-linecap="round" stroke-linejoin="bevel" stroke-width=".08199897" d="M112.10074488 251.42550575c.00052917.03039004.00079375.06039644.00132292.09000066.01658937 1.12555072.03689879 2.13344917.0969989 3.22791928.03730095.67829111.10185134 1.71238066.16686211 2.34597043.07659952.74670972.152908 1.5454418.28715758 2.09902951.09300104.38337066.21516181.6328013.33761098.75847045.08449998.08680185.17692952.0948002.25999016-.0175948.07190052-.09730051.1449414-.23616972.2038694-.44701882.04530195-.16202025.08290189-.41643035.11046089-.64659139.01439333-.12056004.01748896-.26668941.01748896-.40391026v-3.1660491"/>
    <path id="E" fill="none" stroke-linecap="round" stroke-linejoin="bevel" stroke-width=".08199897" d="M112.46055175 251.78536024c.01119187.97808785.02668587 1.88151292.06432814 2.8531661.02619375.67829111.07179998 1.71238066.11755967 2.34597042.05399881.74670972.10772775 1.54543917.20231894 2.09902952.06550024.38337066.15159037.6328013.2378604.75847045.05960005.0867992.1246505.0948002.18317899-.0175948.05060156-.09730051.10211064-.23616972.1436317-.44701882.03189817-.16202025.05839883-.41643035.07779808-.64659139.01010709-.12056004.01230313-.26668941.01230313-.40391027v-3.1660491"/>
    <path id="F" fill="none" stroke-linecap="round" stroke-linejoin="bevel" stroke-width=".08199897" d="M112.81694285 252.14824422c.00637646.80334643.0155575 1.57036556.03386667 2.38539334.01521354.67828847.04169833 1.71237802.06829954 2.34597043.03140075.74670972.06260041 1.54543917.11748029 2.09902952.03799945.38336801.08800041.63279866.13810985.75847045.03459956.0867992.07240058.09479756.10635985-.0175948.0294005-.09730051.05929842-.23617237.08339931-.44702147.01849438-.16202025.03390107-.41643035.04520142-.64658874.00600604-.12056004.00701146-.26669206.00701146-.40391027v-3.16605175"/>
    <path id="G" fill="none" stroke-linecap="round" stroke-linejoin="bevel" stroke-width=".082" d="M113.22603 259.80303v-1.36502"/>
  </defs>
  <g transform="translate(-44.968749 -207.02084975)">
    <rect width="223.22835" height="311.81104" x="996.13269" y="1754.3506" fill="#f4f2ef" stroke="#000" stroke-width=".99673343" rx="10.629921" ry="10.629921" transform="matrix(.19177 0 0 .28132 -144.96527 -285.37882)"/>
    <rect width="223.22835" height="311.81104" x="996.13269" y="1754.3506" fill="none" stroke="#000" stroke-width=".99673343" rx="10.629921" ry="10.629921" transform="matrix(.15163 0 0 .25255 -100.50262 -230.41679)"/>
    <g transform="translate(-.03129248 .02115631)">
      <g transform="translate(45.986351 -1.030461) scale(.28222)">
        <path stroke="#000" stroke-linecap="round" stroke-linejoin="round" stroke-width=".99921268" d="M86.253906 798.53906a130.60275 130.60275 0 0 0-2.117187-1.97265 130.60275 130.60275 0 0 0-7.837891-5.95899 130.60275 130.60275 0 0 0-10.134766 7.94922 118.20118 118.20118 0 0 1 .527344.32227 118.20118 118.20118 0 0 1 9.404297 7.15039 118.20118 118.20118 0 0 1 .123047.11328 118.20118 118.20118 0 0 1 2.617188-2.29883 118.20118 118.20118 0 0 1 7.417968-5.30469zm-10.21289 188.1875a118.20118 118.20118 0 0 1-2.617188 2.29883 118.20118 118.20118 0 0 1-7.388672 5.28125 130.60275 130.60275 0 0 0 10.09961 8.06636 130.60275 130.60275 0 0 0 5.048828-3.61128 130.60275 130.60275 0 0 0 5.001953-4.39453 118.20118 118.20118 0 0 1-.615235-.37696 118.20118 118.20118 0 0 1-9.40625-7.15039 118.20118 118.20118 0 0 1-.123046-.11328z"/>
        <g stroke="#000" stroke-linecap="round" stroke-linejoin="round" stroke-width=".99921268">
          <use xlink:href="#a"/>
          <use xlink:href="#b"/>
        </g>
        <use xlink:href="#c"/>
        <use xlink:href="#d" stroke-linecap="round" stroke-linejoin="round"/>
        <path fill="none" stroke="#000" d="m106.92549 846.16023 11.39949-4.98728m1.35088 107.61418-11.4121-4.99279m-1.34175 2.95728 11.41623 4.9946m1.32492-107.61442-11.39659 4.986"/>
        <use xlink:href="#e" stroke-linecap="round" stroke-linejoin="round" stroke-width=".99921262"/>
        <g fill="none" stroke="#e9c13a" stroke-linecap="round" stroke-linejoin="round">
          <use xlink:href="#f"/>
          <use xlink:href="#g"/>
        </g>
        <g fill="none" stroke="#e9c13a" stroke-linecap="round" stroke-linejoin="round" transform="translate(.02370504 196.2997)">
          <use xlink:href="#f"/>
          <use xlink:href="#g"/>
        </g>
        <use xlink:href="#h" stroke-linecap="round" stroke-linejoin="round" stroke-width=".99921262"/>
        <use xlink:href="#i" stroke-linecap="round" stroke-linejoin="round" stroke-width=".99921262"/>
        <g stroke="#000" stroke-linecap="round" stroke-linejoin="round" stroke-width=".99921268">
          <use xlink:href="#a"/>
          <use xlink:href="#b"/>
        </g>
        <use xlink:href="#c"/>
        <use xlink:href="#d" stroke-linecap="round" stroke-linejoin="round"/>
        <path fill="none" stroke="#000" d="m106.92549 846.16023 11.39949-4.98728m1.35088 107.61418-11.4121-4.99279m-1.34175 2.95728 11.41623 4.9946"/>
        <use xlink:href="#h" stroke-linecap="round" stroke-linejoin="round" stroke-width=".99921262"/>
        <path fill="none" stroke="#000" d="m119.66316 844.1318-11.39659 4.986"/>
        <use xlink:href="#i" stroke-linecap="round" stroke-linejoin="round" stroke-width=".99921262"/>
        <use xlink:href="#e" stroke-linecap="round" stroke-linejoin="round" stroke-width=".99921262"/>
        <g stroke="#000">
          <path fill="#dd1d1d" fill-rule="evenodd" d="m76.181104 790.37259 10.123355 8.06231 16.541121-11.59007-10.126345-8.06152z"/>
          <path fill="none" d="m81.137326 794.2779 46.078104-32.62379 1.2533-.88735"/>
          <ellipse cx="701.54578" cy="332.55634" fill="#1780ce" stroke-linecap="round" stroke-linejoin="round" stroke-width=".99921262" rx="6.969934" ry="10.075922" transform="rotate(55.713) skewX(-.007)"/>
          <ellipse cx="701.54578" cy="332.55634" fill="none" stroke-linecap="round" stroke-linejoin="round" stroke-width=".9992125" rx="4.9103184" ry="10.075922" transform="rotate(55.713) skewX(-.007)"/>
          <ellipse cx="701.54578" cy="332.55634" fill="none" stroke-linecap="round" stroke-linejoin="round" stroke-width=".99921262" rx="2.6450899" ry="10.075922" transform="rotate(55.713) skewX(-.007)"/>
          <path fill="none" d="m128.74117 761.2666-16.65148 11.35011"/>
          <ellipse cx="701.54578" cy="320.39029" stroke-linecap="round" stroke-linejoin="round" stroke-width=".99921262" rx="1.7424835" ry="1.7425725" transform="rotate(55.713) skewX(-.007)"/>
          <path fill-rule="evenodd" stroke-linecap="round" stroke-linejoin="round" d="m84.564553 784.82979-3.427227 9.44811 13.223058-1.48764-9.795831-7.96047"/>
          <g stroke-linecap="round" stroke-linejoin="round" opacity=".97000002" transform="rotate(53.965 308.16185 769.40986)">
            <ellipse cx="-195.18761" cy="930.78436" fill="#dd1d1d" stroke-width=".97068387" opacity="1" rx="6.6971622" ry="13.216784" transform="skewY(3.207) scale(-.99843 1)"/>
            <path fill="none" stroke-width=".6448819" d="m191.49633 930.11729 6.43907.00006m-7.92352 2.25756 9.4728.00033m-10.35169 2.2572 11.29511.00002M188.58776 936.89l12.45022-.00028m-12.75052 2.25751 13.11558.00007m-13.20771 2.25735 13.36454.00001m-13.26024 2.25742 13.22065-.00005m-12.91322 2.25757 12.67052-.00023m-12.13141 2.25725 11.65685.0004m-10.8159 2.25755 10.03985-.00019"/>
          </g>
          <path fill="#1780ce" fill-rule="evenodd" d="m76.27784 1002.6087-10.123355-8.0623-16.541125 11.5901 10.126349 8.0615z"/>
          <path fill="none" d="m71.321618 998.7034-46.078108 32.6238-1.2533.8873"/>
          <ellipse cx="-865.86487" cy="-551.53113" fill="#dd1d1d" stroke-linecap="round" stroke-linejoin="round" stroke-width=".99921262" rx="6.969934" ry="10.075922" transform="rotate(-124.287) skewX(-.007)"/>
          <ellipse cx="-865.86487" cy="-551.53113" fill="none" stroke-linecap="round" stroke-linejoin="round" stroke-width=".9992125" rx="4.9103184" ry="10.075922" transform="rotate(-124.287) skewX(-.007)"/>
          <ellipse cx="-865.86487" cy="-551.53113" fill="none" stroke-linecap="round" stroke-linejoin="round" stroke-width=".99921262" rx="2.6450899" ry="10.075922" transform="rotate(-124.287) skewX(-.007)"/>
          <path fill="none" d="m23.717774 1031.7147 16.651479-11.3501"/>
          <ellipse cx="-865.86487" cy="-563.6972" stroke-linecap="round" stroke-linejoin="round" stroke-width=".99921262" rx="1.7424835" ry="1.7425725" transform="rotate(-124.287) skewX(-.007)"/>
          <path fill-rule="evenodd" stroke-linecap="round" stroke-linejoin="round" d="m67.894391 1008.1515 3.427227-9.4481-13.223058 1.4876 9.795831 7.9605"/>
          <g fill="#1780ce" stroke-linecap="round" stroke-linejoin="round" opacity=".97000002" transform="rotate(-126.035 140.93183 1014.5777)">
            <ellipse cx="-195.18761" cy="930.78436" stroke-width=".97068387" opacity="1" rx="6.6971622" ry="13.216784" transform="skewY(3.207) scale(-.99843 1)"/>
            <path fill-rule="evenodd" stroke-width=".6448819" d="m191.49633 930.11729 6.43907.00006m-7.92352 2.25756 9.4728.00033m-10.35169 2.2572 11.29511.00002M188.58776 936.89l12.45022-.00028m-12.75052 2.25751 13.11558.00007m-13.20771 2.25735 13.36454.00001m-13.26024 2.25742 13.22065-.00005m-12.91322 2.25757 12.67052-.00023m-12.13141 2.25725 11.65685.0004m-10.8159 2.25755 10.03985-.00019"/>
          </g>
        </g>
        <g stroke-linejoin="round" stroke-width=".99921262">
          <path fill="#e9c13a" fill-rule="evenodd" stroke="#000" d="M79.138409 1033.5903c3.42533-4.6295 8.353311-8.1968 15.947266-10.1543l3.5625-.92-3.412109-1.3711c-7.376865-2.967-14.761822-6.1009-20.19002-9.6034-5.428199-3.5025-7.920645-5.2094-10.550619-7.1565-2.278689-1.6871-4.660621-3.5549-7.17347-5.6483C46.4347 988.29228 46.14456 984.31524 41.32977 977.38124l-1.58008-2.2754-.5918 2.70704c-1.70019 7.77411-4.71642 14.68189-10.67773 20.04296l-1.41797 1.2754 1.75976.73632c6.23568 2.61284 7.9113 2.30874 18.80274 7.99024 3.91373 2.2373 7.323637 3.8491 12.67383 8.6758h.0118c4.069589 3.5898 8.076502 7.1284 16.953125 17.1328l.990217 1.1132z" color="#000" font-family="sans-serif" font-weight="400" overflow="visible" style="line-height:normal;text-indent:0;text-align:start;text-decoration-line:none;text-decoration-style:solid;text-decoration-color:#000;text-transform:none;white-space:normal;isolation:auto;mix-blend-mode:normal;solid-color:#000;solid-opacity:1"/>
          <path fill-rule="evenodd" stroke="#e9c13a" d="M78.144269 1031.0785c-8.127226-9.0759-12.340283-12.9116-16.226563-16.3398-5.544207-5.0017-9.283643-6.7998-13.113286-8.9902l-.0215-.012-.0195-.012c-9.85822-5.1445-12.63618-5.6561-17.375-7.4805 4.80953-4.87381 7.65416-10.77006 9.37305-17.16407 3.35284 5.43963 5.16396 10.08326 14.914059 19.42967l.03125.029.03125.025c5.501455 4.5857 10.405755 8.1131 14.96875 11.0469h.002c7.537106 4.8672 14.214514 7.8372 20.724609 10.5176-5.779566 2.0162-10.099328 5.0807-13.253996 8.9046-.0117.014-.03512.043-.03512.043z" color="#000" font-family="sans-serif" font-weight="400" overflow="visible" style="line-height:normal;text-indent:0;text-align:start;text-decoration-line:none;text-decoration-style:solid;text-decoration-color:#000;text-transform:none;white-space:normal;isolation:auto;mix-blend-mode:normal;solid-color:#000;solid-opacity:1"/>
          <ellipse cx="-88.165131" cy="-1029.6583" stroke="#000" stroke-linecap="round" rx="3.0437007" ry="3.0437002" transform="scale(-1)"/>
          <ellipse cx="-32.537098" cy="-987.55042" stroke="#000" stroke-linecap="round" rx="3.0437007" ry="3.0437002" transform="scale(-1)"/>
        </g>
        <g stroke-linejoin="round" stroke-width=".99921262">
          <path fill="#e9c13a" fill-rule="evenodd" stroke="#000" d="M73.275391 759.43164c-3.42533 4.62948-8.353311 8.19678-15.947266 10.1543l-3.5625.91992 3.412109 1.37109c7.376865 2.96701 14.761822 6.10097 20.19002 9.60344 5.428199 3.50246 7.920645 5.20983 10.550619 7.15701 2.278689 1.6871 4.660621 3.55439 7.17347 5.6478 10.887257 10.44442 11.177397 14.42146 15.992187 21.35546l1.58008 2.2754.5918-2.70704c1.70019-7.77411 4.71642-14.68189 10.67773-20.04296l1.41797-1.2754-1.75976-.73632c-6.23568-2.61289-7.9113-2.30871-18.80274-7.99024-3.91373-2.23728-7.323637-3.84911-12.67383-8.67578l-.0059-.004-.0059-.004c-4.069589-3.58987-8.076502-7.12841-16.953125-17.13281l-.990217-1.11321z" color="#000" font-family="sans-serif" font-weight="400" overflow="visible" style="line-height:normal;text-indent:0;text-align:start;text-decoration-line:none;text-decoration-style:solid;text-decoration-color:#000;text-transform:none;white-space:normal;isolation:auto;mix-blend-mode:normal;solid-color:#000;solid-opacity:1" transform="translate(3.384784 3.9098652)"/>
          <path fill-rule="evenodd" stroke="#e9c13a" d="M74.269531 761.94336c8.127226 9.07596 12.340283 12.91166 16.226563 16.33984 5.544207 5.0017 9.283643 6.79981 13.113286 8.99024l.0215.0117.0195.0117c9.85822 5.14443 12.63618 5.65609 17.375 7.48046-4.80953 4.87381-7.65416 10.77006-9.37305 17.16407-3.35284-5.43963-5.16396-10.08326-14.914059-19.42969l-.03125-.0293-.03125-.0254c-5.501455-4.58569-10.405755-8.11308-14.96875-11.04687l-.002-.002c-7.537106-4.86723-14.214514-7.83717-20.724609-10.51758 5.779566-2.0162 10.099328-5.08076 13.253996-8.90467.0117-.0142.03512-.0425.03512-.0425z" color="#000" font-family="sans-serif" font-weight="400" overflow="visible" style="line-height:normal;text-indent:0;text-align:start;text-decoration-line:none;text-decoration-style:solid;text-decoration-color:#000;text-transform:none;white-space:normal;isolation:auto;mix-blend-mode:normal;solid-color:#000;solid-opacity:1" transform="translate(3.384784 3.9098652)"/>
          <ellipse cx="67.633453" cy="767.27344" stroke="#000" stroke-linecap="round" rx="3.0437007" ry="3.0437002"/>
          <ellipse cx="123.26148" cy="809.38135" stroke="#000" stroke-linecap="round" rx="3.0437007" ry="3.0437002"/>
        </g>
      </g>
      <g fill-rule="evenodd" stroke="#000" stroke-linejoin="round" transform="translate(45.999147 -1.0304629) scale(.28222)">
        <use xlink:href="#j"/>
        <path fill="#1780ce" d="M76.181106 836.22046c.82397-2.73947 2.43575-4.7591 1.77165-8.85826 4.099165.6641 6.118796-.94768 8.858269-1.77165-2.739471-.82397-4.759102-2.43575-8.858267-1.77165.6641-4.09916-.94768-6.11879-1.77165-8.85826-.82397 2.73947-2.43575 4.7591-1.77165 8.85826-4.09917-.6641-6.1188.94768-8.85827 1.77165 2.73947.82398 4.7591 2.43575 8.858269 1.77166-.664101 4.09915.947679 6.11878 1.771649 8.85825z"/>
      </g>
      <g fill-rule="evenodd" stroke="#000" stroke-linejoin="round" transform="translate(45.999147 35.469539) scale(.28222)">
        <use xlink:href="#j"/>
        <path fill="#dd1d1d" d="M76.181106 836.22046c.82397-2.73947 2.43575-4.7591 1.77165-8.85826 4.099165.6641 6.118796-.94768 8.858269-1.77165-2.739471-.82397-4.759102-2.43575-8.858267-1.77165.6641-4.09916-.94768-6.11879-1.77165-8.85826-.82397 2.73947-2.43575 4.7591-1.77165 8.85826-4.09917-.6641-6.1188.94768-8.85827 1.77165 2.73947.82398 4.7591 2.43575 8.858269 1.77166-.664101 4.09915.947679 6.11878 1.771649 8.85825z"/>
      </g>
      <g fill="#e9c13a" stroke="#000" stroke-width="1.08581853" transform="matrix(.16762 0 0 .13189 31.514207 141.18331)">
        <g transform="matrix(1.21472 0 0 1.20689 -45.996378 -161.66248)">
          <path fill-rule="evenodd" stroke-linecap="round" stroke-width="1.01096106" d="M214.5943 784.63805v-5.63m-2.5 2h5"/>
          <path fill-rule="evenodd" stroke-width="1.01096106" d="M214.5943 798.00805s4.5-7.5 3-10.5c0 0-1-2.5-3-2.5s-3 2.5-3 2.5c-1.5 3 3 10.5 3 10.5"/>
          <path fill-rule="evenodd" stroke-linecap="round" stroke-linejoin="round" stroke-width="1.01096106" d="M203.5943 810.00805c5.5 3.5 15.5 3.5 21 0v-7s9-4.5 6-10.5c-4-6.5-13.5-3.5-16 4v3.5-3.5c-3.5-7.5-13-10.5-16-4-3 6 5 10 5 10z"/>
          <path fill-rule="evenodd" stroke-linecap="round" stroke-linejoin="round" stroke-width="1.01096117" d="M208.46716 791.75498c-2.3898-.66142-4.73241.00091-5.85702 2.45773-2.24922 4.53548 5.24932 7.23258 5.24932 7.23258 1.60238-.52359 4.07534-.74357 6.33973-.74357 2.26437 0 4.35155.44578 6.12793.7431.54074.11464 8.52528-2.69663 6.27608-7.23211-2.99899-4.91341-10.12409-2.64552-11.99845 3.0238-1.31205-2.83466-3.74779-4.82011-6.13759-5.48153z"/>
          <path fill="none" stroke-linecap="round" stroke-linejoin="round" stroke-width="1.01096106" d="M203.5943 803.00805c5.5-3 15.5-3 21 0m-21 3.5c5.5-3 15.5-3 21 0"/>
          <path fill-rule="evenodd" stroke-linecap="round" stroke-linejoin="round" stroke-width="1.01096106" d="M203.5943 810.00805c5.5-3 15.5-3 21 0m-13.77126-14.86138c-1.47028-.38402-2.91153.0006-3.60342 1.42692-1.3838 2.63324 3.27172 4.32447 3.27172 4.32447.96403-.063 2.35521-.19354 3.74833-.19354 1.39313 0 2.78668.13047 3.87956.30308.33268.0666 5.24544-1.80077 3.86166-4.43401-1.84507-2.85266-6.22865-1.53595-7.38182 1.75558-.80721-1.64577-2.30575-2.79849-3.77603-3.1825z"/>
        </g>
        <path fill="#000" fill-rule="evenodd" stroke-linecap="round" stroke-linejoin="round" stroke-width=".99999994" d="M75.033203 926.30859c-.407156 2.0526-.02412 3.96851-1.137534 5.66797 1.701542-.91009 1.825104.32233 2.823081 2.34375.997977-2.02142 1.123409-3.25384 2.824951-2.34375-1.113411-1.69946-.730295-3.61537-1.137451-5.66797l-1.6875.0117z" transform="matrix(1.68366 0 0 2.13983 85.506972 -1078.0469)"/>
      </g>
      <g stroke="#000" stroke-width=".28200001" transform="translate(-.0000645)">
        <path fill="#1780ce" stroke-linecap="round" stroke-linejoin="round" d="M70.845353 239.46954h-6.717999a3.3591433 3.3591411 0 0 0 3.358675 3.35933 3.3591433 3.3591411 0 0 0 3.359324-3.35933z"/>
        <path fill="#dd1d1d" stroke-linecap="round" stroke-linejoin="round" d="M67.486029 236.11022a3.3591433 3.3591411 0 0 0-3.358675 3.35932h6.717999a3.3591433 3.3591411 0 0 0-3.359324-3.35932z"/>
        <path fill="#e9c13a" fill-rule="evenodd" d="M67.486352 242.82887s1.406165-2.52018.937444-3.52826c0 0-.312481-.84006-.937444-.84006-.624962 0-.937443.84006-.937443.84006-.468722 1.00808.937443 3.52826.937443 3.52826"/>
      </g>
      <path fill="none" stroke="#000" stroke-width=".28222221" d="M67.486289 242.82887v-6.71865m-3.359322 3.35932h6.718644"/>
      <path fill="none" stroke="#000" stroke-width=".082" d="m67.485499 234.96954.01365 8.89184m.007651 18.91733-.01352 2.78361"/>
      <g transform="translate(-49.730076 -.11041802)">
        <use xlink:href="#k" fill-rule="evenodd" stroke-linejoin="round" stroke-width=".2820028"/>
        <use xlink:href="#l" fill-rule="evenodd" stroke-width=".28222224"/>
        <use xlink:href="#m" stroke-width=".28222221"/>
        <use xlink:href="#n" stroke-width=".082"/>
        <g stroke="#000">
          <g transform="matrix(.3024 .3046 -.3046 .3024 368.6049 -36.343573)">
            <use xlink:href="#o" stroke-width=".6575253"/>
            <use xlink:href="#p" fill-rule="evenodd" stroke-linejoin="round" stroke-width=".65700758"/>
          </g>
          <use xlink:href="#q" fill-rule="evenodd" stroke-width=".28222224"/>
          <use xlink:href="#r" stroke-linecap="round" stroke-linejoin="bevel" stroke-width=".08199897"/>
          <use xlink:href="#s" stroke-linecap="round" stroke-linejoin="bevel" stroke-width=".08199897"/>
          <use xlink:href="#t" stroke-linecap="round" stroke-linejoin="bevel" stroke-width=".08199897"/>
          <use xlink:href="#u" stroke-linecap="round" stroke-linejoin="bevel" stroke-width=".08199897"/>
          <use xlink:href="#v" stroke-linecap="round" stroke-linejoin="bevel" stroke-width=".08199897"/>
          <use xlink:href="#w" stroke-linecap="round" stroke-linejoin="bevel" stroke-width=".08199897"/>
          <use xlink:href="#x" stroke-linecap="round" stroke-linejoin="bevel" stroke-width=".08199897"/>
          <use xlink:href="#y" stroke-linecap="round" stroke-linejoin="bevel" stroke-width=".08199897"/>
          <use xlink:href="#z" stroke-linecap="round" stroke-linejoin="bevel" stroke-width=".08199897"/>
          <use xlink:href="#A" stroke-linecap="round" stroke-linejoin="bevel" stroke-width=".08199897"/>
          <use xlink:href="#B" stroke-linecap="round" stroke-linejoin="bevel" stroke-width=".08199897"/>
          <use xlink:href="#C" stroke-linecap="round" stroke-linejoin="bevel" stroke-width=".08199897"/>
          <use xlink:href="#D" stroke-linecap="round" stroke-linejoin="bevel" stroke-width=".08199897"/>
          <use xlink:href="#E" stroke-linecap="round" stroke-linejoin="bevel" stroke-width=".08199897"/>
          <use xlink:href="#F" stroke-linecap="round" stroke-linejoin="bevel" stroke-width=".08199897"/>
          <use xlink:href="#G" stroke-linecap="round" stroke-linejoin="bevel" stroke-width=".082"/>
        </g>
        <g transform="matrix(-1 0 0 1 234.45851 -.0000329)">
          <use xlink:href="#k" fill-rule="evenodd" stroke-linejoin="round" stroke-width=".2820028"/>
          <use xlink:href="#l" fill-rule="evenodd" stroke-width=".28222224"/>
          <use xlink:href="#m" stroke-width=".28222221"/>
          <use xlink:href="#n" stroke-width=".082"/>
          <g stroke="#000">
            <g transform="matrix(.3024 .3046 -.3046 .3024 368.6049 -36.343573)">
              <use xlink:href="#o" stroke-width=".6575253"/>
              <use xlink:href="#p" fill-rule="evenodd" stroke-linejoin="round" stroke-width=".65700758"/>
            </g>
            <use xlink:href="#q" fill-rule="evenodd" stroke-width=".28222224"/>
            <use xlink:href="#r" stroke-linecap="round" stroke-linejoin="bevel" stroke-width=".08199897"/>
            <use xlink:href="#s" stroke-linecap="round" stroke-linejoin="bevel" stroke-width=".08199897"/>
            <use xlink:href="#t" stroke-linecap="round" stroke-linejoin="bevel" stroke-width=".08199897"/>
            <use xlink:href="#u" stroke-linecap="round" stroke-linejoin="bevel" stroke-width=".08199897"/>
            <use xlink:href="#v" stroke-linecap="round" stroke-linejoin="bevel" stroke-width=".08199897"/>
            <use xlink:href="#w" stroke-linecap="round" stroke-linejoin="bevel" stroke-width=".08199897"/>
            <use xlink:href="#x" stroke-linecap="round" stroke-linejoin="bevel" stroke-width=".08199897"/>
            <use xlink:href="#y" stroke-linecap="round" stroke-linejoin="bevel" stroke-width=".08199897"/>
            <use xlink:href="#z" stroke-linecap="round" stroke-linejoin="bevel" stroke-width=".08199897"/>
            <use xlink:href="#A" stroke-linecap="round" stroke-linejoin="bevel" stroke-width=".08199897"/>
            <use xlink:href="#B" stroke-linecap="round" stroke-linejoin="bevel" stroke-width=".08199897"/>
            <use xlink:href="#C" stroke-linecap="round" stroke-linejoin="bevel" stroke-width=".08199897"/>
            <use xlink:href="#D" stroke-linecap="round" stroke-linejoin="bevel" stroke-width=".08199897"/>
            <use xlink:href="#E" stroke-linecap="round" stroke-linejoin="bevel" stroke-width=".08199897"/>
            <use xlink:href="#F" stroke-linecap="round" stroke-linejoin="bevel" stroke-width=".08199897"/>
            <use xlink:href="#G" stroke-linecap="round" stroke-linejoin="bevel" stroke-width=".082"/>
          </g>
        </g>
        <g fill-rule="evenodd" stroke="#000" stroke-width=".28222224">
          <path fill="#dd1d1d" d="M118.22947 251.06081v2.99971h2.99971v-2.99971zm2.99971 5.00007h-2.99971l.00001 4.14181c.43938-.18047.87262-.20758 1.22038-.33732.36079-.13907.74284-.28036 1.02305-.54681.35461-.33718.75627-.76854.75627-1.25787z"/>
          <path fill="#f4f2ef" d="M116.2296 254.06001h-3.00026v2.00036h3.00026v4.14183c.53726.21086.94264.67372.99936.81525-.0101.0252-.0119.0424.00056.0424.0123 0 .01-.0169 0-.0419v-.001c.0572-.14202.46285-.60412.99991-.81469v-4.14183h2.99971v-2.00036h-2.99971v-2.99972h-.99991l-.99991-.00002z"/>
          <path fill="#dd1d1d" d="M113.22934 251.0603v2.99971h3.00026v-2.99971zm3.00026 9.1419v-4.14183h-3.00026v1.99981c0 .48933.40166.92069.75627 1.25787.28021.26645.66225.40774 1.02305.54681.434.13937.85779.20188 1.22094.33734z"/>
        </g>
      </g>
    </g>
  </g>
</svg>