<?xml version="1.0" encoding="UTF-8" standalone="no"?>
<!-- Created with Inkscape (http://www.inkscape.org/) -->

<svg
   xmlns:dc="http://purl.org/dc/elements/1.1/"
   xmlns:cc="http://creativecommons.org/ns#"
   xmlns:rdf="http://www.w3.org/1999/02/22-rdf-syntax-ns#"
   xmlns:svg="http://www.w3.org/2000/svg"
   xmlns="http://www.w3.org/2000/svg"
   xmlns:sodipodi="http://sodipodi.sourceforge.net/DTD/sodipodi-0.dtd"
   xmlns:inkscape="http://www.inkscape.org/namespaces/inkscape"
   width="45mm"
   height="90mm"
   viewBox="0 0 45 90"
   version="1.1"
   id="svg12330"
   inkscape:version="0.92.5 (0.92.5+68)"
   sodipodi:docname="Fante-Denari.svg">
  <defs
     id="defs12324">
    <inkscape:path-effect
       effect="spiro"
       id="path-effect5697-16"
       is_visible="true" />
    <pattern
       patternUnits="userSpaceOnUse"
       width="3.542969"
       height="4.72461"
       patternTransform="translate(-52.263672,805.51172)"
       id="rombi-97">
      <path
         id="path35696-05"
         d="M 0,0 0,0.53906 0.482422,1.18164 0,1.82617 0,2.90039 0.482422,3.54297 0,4.18555 l 0,0.53906 0.40625,0 -0.001953,-0.00195 0.480469,-0.64258 0.484375,0.64453 0.80664,0 0.482422,-0.64258 0.482422,0.64258 0.402344,0 0,-0.53711 -0.482422,-0.64258 0.482422,-0.64453 0,-1.07617 L 3.060547,1.18164 3.542969,0.53711 3.542969,0 3.140625,0 2.658203,0.64258 2.175781,0 1.369141,0 0.886719,0.64453 0.404297,0.00195 0.40625,0 0,0 Z M 1.771484,0.53711 2.253906,1.18164 1.771484,1.82422 1.289063,1.18164 1.771484,0.53711 Z M 0.886719,1.71875 1.369141,2.36133 0.884766,3.00586 0.402344,2.36328 0.886719,1.71875 Z m 1.771484,0 L 3.140625,2.36328 2.658203,3.00586 2.173828,2.36328 2.658203,1.71875 Z M 1.771484,2.90039 2.253906,3.54297 1.771484,4.1875 1.289063,3.54297 1.771484,2.90039 Z"
         style="color:#000000;font-style:normal;font-variant:normal;font-weight:normal;font-stretch:normal;font-size:medium;line-height:normal;font-family:sans-serif;text-indent:0;text-align:start;text-decoration:none;text-decoration-line:none;text-decoration-style:solid;text-decoration-color:#000000;letter-spacing:normal;word-spacing:normal;text-transform:none;direction:ltr;block-progression:tb;writing-mode:lr-tb;baseline-shift:baseline;text-anchor:start;white-space:normal;clip-rule:nonzero;display:inline;overflow:visible;visibility:visible;opacity:1;isolation:auto;mix-blend-mode:normal;color-interpolation:sRGB;color-interpolation-filters:linearRGB;solid-color:#000000;solid-opacity:1;fill:#000000;fill-opacity:1;fill-rule:evenodd;stroke:none;stroke-width:0.6448819;stroke-linecap:butt;stroke-linejoin:miter;stroke-miterlimit:4;stroke-dasharray:none;stroke-dashoffset:0;stroke-opacity:1;color-rendering:auto;image-rendering:auto;shape-rendering:auto;text-rendering:auto;enable-background:accumulate"
         inkscape:connector-curvature="0" />
    </pattern>
    <pattern
       patternUnits="userSpaceOnUse"
       width="3.542969"
       height="4.72461"
       patternTransform="translate(-52.263672,805.51172)"
       id="pattern15214">
      <path
         id="path15212"
         d="M 0,0 0,0.53906 0.482422,1.18164 0,1.82617 0,2.90039 0.482422,3.54297 0,4.18555 l 0,0.53906 0.40625,0 -0.001953,-0.00195 0.480469,-0.64258 0.484375,0.64453 0.80664,0 0.482422,-0.64258 0.482422,0.64258 0.402344,0 0,-0.53711 -0.482422,-0.64258 0.482422,-0.64453 0,-1.07617 L 3.060547,1.18164 3.542969,0.53711 3.542969,0 3.140625,0 2.658203,0.64258 2.175781,0 1.369141,0 0.886719,0.64453 0.404297,0.00195 0.40625,0 0,0 Z M 1.771484,0.53711 2.253906,1.18164 1.771484,1.82422 1.289063,1.18164 1.771484,0.53711 Z M 0.886719,1.71875 1.369141,2.36133 0.884766,3.00586 0.402344,2.36328 0.886719,1.71875 Z m 1.771484,0 L 3.140625,2.36328 2.658203,3.00586 2.173828,2.36328 2.658203,1.71875 Z M 1.771484,2.90039 2.253906,3.54297 1.771484,4.1875 1.289063,3.54297 1.771484,2.90039 Z"
         style="color:#000000;font-style:normal;font-variant:normal;font-weight:normal;font-stretch:normal;font-size:medium;line-height:normal;font-family:sans-serif;text-indent:0;text-align:start;text-decoration:none;text-decoration-line:none;text-decoration-style:solid;text-decoration-color:#000000;letter-spacing:normal;word-spacing:normal;text-transform:none;direction:ltr;block-progression:tb;writing-mode:lr-tb;baseline-shift:baseline;text-anchor:start;white-space:normal;clip-rule:nonzero;display:inline;overflow:visible;visibility:visible;opacity:1;isolation:auto;mix-blend-mode:normal;color-interpolation:sRGB;color-interpolation-filters:linearRGB;solid-color:#000000;solid-opacity:1;fill:#000000;fill-opacity:1;fill-rule:evenodd;stroke:none;stroke-width:0.6448819;stroke-linecap:butt;stroke-linejoin:miter;stroke-miterlimit:4;stroke-dasharray:none;stroke-dashoffset:0;stroke-opacity:1;color-rendering:auto;image-rendering:auto;shape-rendering:auto;text-rendering:auto;enable-background:accumulate"
         inkscape:connector-curvature="0" />
    </pattern>
  </defs>
  <sodipodi:namedview
     id="base"
     pagecolor="#ffffff"
     bordercolor="#666666"
     borderopacity="1.0"
     inkscape:pageopacity="0.0"
     inkscape:pageshadow="2"
     inkscape:zoom="0.35"
     inkscape:cx="-421.42857"
     inkscape:cy="560"
     inkscape:document-units="mm"
     inkscape:current-layer="layer1"
     showgrid="false"
     inkscape:window-width="1920"
     inkscape:window-height="1015"
     inkscape:window-x="0"
     inkscape:window-y="36"
     inkscape:window-maximized="1" />
  <metadata
     id="metadata12327">
    <rdf:RDF>
      <cc:Work
         rdf:about="">
        <dc:format>image/svg+xml</dc:format>
        <dc:type
           rdf:resource="http://purl.org/dc/dcmitype/StillImage" />
        <dc:title></dc:title>
      </cc:Work>
    </rdf:RDF>
  </metadata>
  <g
     inkscape:label="Livello 1"
     inkscape:groupmode="layer"
     id="layer1"
     transform="translate(0,-207)">
    <g
       transform="matrix(0.28222223,0,0,0.28222223,-449.99999,206.00658)"
       style="display:inline;enable-background:new"
       id="g14615">
      <g
         id="g3963-36-8-3-0-4-5-2-9"
         transform="matrix(0.97007836,0,0,0.99640171,632.10522,-1740.4138)"
         style="display:inline;fill:#f4f2ef;fill-opacity:1;enable-background:new">
        <g
           style="fill:#f4f2ef;fill-opacity:1"
           transform="matrix(0.70046334,0,0,1.0004147,298.31443,-0.79222925)"
           id="g3888-7-45-6-6-7-6-4-0">
          <rect
             inkscape:label="#bordo esterno"
             ry="10.629921"
             rx="10.629921"
             style="fill:#f4f2ef;fill-opacity:1;stroke:#000000;stroke-width:0.99673343;stroke-miterlimit:4;stroke-dasharray:none;stroke-opacity:1"
             id="bordo_esterno-5-0-1-3-6-9-7-3"
             width="223.22835"
             height="311.81104"
             x="996.13269"
             y="1754.3506" />
        </g>
      </g>
      <g
         id="g3963-3-3-4-4-7-8-3-9-6-7-2-9-8"
         transform="matrix(0.76704017,0,0,0.89449577,850.21927,-1545.4911)"
         style="display:inline;fill:none;enable-background:new">
        <g
           style="fill:none"
           transform="matrix(0.70046334,0,0,1.0004147,298.31443,-0.79222925)"
           id="g3888-6-5-7-3-8-8-1-2-8-1-7-0-9">
          <rect
             inkscape:label="#bordo interno"
             ry="10.629921"
             rx="10.629921"
             style="fill:none;fill-opacity:1;stroke:#000000;stroke-width:0.99673343;stroke-miterlimit:4;stroke-dasharray:none;stroke-opacity:1"
             id="bordo_interno-6-4-0-6-4-4-0-9-7-2-8-1"
             width="223.22835"
             height="311.81104"
             x="996.13269"
             y="1754.3506" />
        </g>
      </g>
      <g
         id="g53203"
         style="display:inline"
         transform="translate(1598.0314,-733.4889)">
        <path
           style="display:inline;fill:#287028;fill-rule:evenodd;stroke:#000000;stroke-width:0.29055119;stroke-linecap:round;stroke-linejoin:round;stroke-miterlimit:4;stroke-dasharray:none;stroke-opacity:1"
           d="m 20.188924,1006.7599 c 1.034119,-1.2954 -0.23907,-4.2512 2.436076,-3.0227 0.230544,-0.4044 0.05453,-1.0676 1.125,-0.9375 -0.208922,-3.40037 2.945115,-2.315 2.5,-0.3125 0.408843,0.8491 -0.241427,1.6686 1.375,1.6875 1.463756,-0.3861 1.181029,1.5381 -0.3125,1.9375 l -0.456743,1.419 -3.355757,0.581 -3.318336,-1.3522"
           id="path13183-1"
           inkscape:connector-curvature="0"
           sodipodi:nodetypes="ccccccccc" />
        <path
           style="display:inline;fill:#287028;fill-rule:evenodd;stroke:#000000;stroke-width:0.29055119;stroke-linecap:round;stroke-linejoin:round;stroke-miterlimit:4;stroke-dasharray:none;stroke-opacity:1"
           d="m 80.098804,1010.2383 c 0.243632,-2.2576 0.564953,-4.218 0.588696,-7.1261 -0.03848,-1.7747 0.74403,-2.3573 1.375,-0.6875 0.216566,1.528 0.187903,3.2331 0.570484,4.6412 0.444045,-0.9022 0.621632,0.099 0.821204,1.6715 l -0.579188,2.1873 z"
           id="path13185-3"
           inkscape:connector-curvature="0"
           sodipodi:nodetypes="ccccccc" />
        <path
           style="display:inline;fill:#287028;fill-rule:evenodd;stroke:#000000;stroke-width:0.29055119;stroke-linecap:round;stroke-linejoin:round;stroke-miterlimit:4;stroke-dasharray:none;stroke-opacity:1"
           d="m 83.454192,1008.7374 c 0.332562,-3.1655 0.22891,-6.3311 3.100098,-9.49659 0.113599,-0.87041 0.455781,-0.64363 0.861786,-0.11049 0.255972,0.62375 0.54494,1.18978 0.574524,2.20968 -0.29447,1.0428 -0.227789,1.6522 0.06629,1.9888 0.77118,0.3743 1.202244,0.2141 1.149048,-0.7071 -0.08243,-0.8513 0.153283,-0.7481 0.287262,-0.9502 0.425333,0.099 0.49054,-0.2345 0.707107,-0.3315 0.516953,-0.071 1.151087,0.047 0.53033,1.569 -0.06196,1.2355 -0.123917,1.9668 -0.185875,2.3189 l -0.07929,1.4596 -7.011282,2.0499"
           id="path13187-2"
           inkscape:connector-curvature="0"
           sodipodi:nodetypes="cccccccccccc" />
        <path
           style="display:inline;fill:#287028;fill-rule:evenodd;stroke:#000000;stroke-width:0.29055119;stroke-linecap:butt;stroke-linejoin:miter;stroke-miterlimit:4;stroke-dasharray:none;stroke-opacity:1"
           d="m 110.91929,996.46105 c -2.20302,-3.87127 4.39407,-7.5353 3.37398,-0.82852 l -0.25148,0.0546 z"
           id="path13189-9"
           inkscape:connector-curvature="0"
           sodipodi:nodetypes="cccc" />
        <path
           style="display:inline;fill:#287028;fill-rule:evenodd;stroke:#000000;stroke-width:0.29055119;stroke-linecap:butt;stroke-linejoin:miter;stroke-miterlimit:4;stroke-dasharray:none;stroke-opacity:1"
           d="m 116.03015,995.28583 c -0.34988,-0.89983 -0.8183,-1.8903 0.77505,-1.30413 -0.0333,-5.80353 1.65506,-4.99201 3.84489,-2.2539 0.0828,-2.3198 2.19487,-1.48462 2.07713,-1.06066 -0.87557,-1.73169 0.78832,-1.82294 1.19324,-1.90035 -0.6034,-4.05349 4.1807,-2.11191 2.2981,0.66291 1.55439,-0.39014 2.08193,0.46662 1.98874,2.07713 0.22332,-1.60789 0.71743,-2.89986 2.34229,-2.87262 0.16461,-2.4399 2.32426,-1.23132 1.98874,0.48613 l -0.0442,1.72357 c 1.14587,-0.52715 2.38125,-0.56929 1.32583,1.10486 2.0222,0.081 1.24243,1.48916 1.1684,2.56307 l -3.15714,1.81215 -14.36311,0.13258 z"
           id="path13191-9"
           inkscape:connector-curvature="0"
           sodipodi:nodetypes="ccccccccccccccc" />
        <g
           style="display:inline"
           id="g19685">
          <path
             style="fill:#e9c13a;fill-rule:evenodd;stroke:#000000;stroke-width:1px;stroke-linecap:butt;stroke-linejoin:miter;stroke-opacity:1"
             d="m 136.14955,994.6122 c -39.87475,-3.68553 -44.721779,20.2252 -85.962048,22.4375 v 18.7073 h 85.962048 z"
             id="path15246"
             inkscape:connector-curvature="0"
             sodipodi:nodetypes="ccccc" />
          <path
             style="fill:#dd1d1d;fill-rule:evenodd;stroke:#000000;stroke-width:1px;stroke-linecap:round;stroke-linejoin:round;stroke-opacity:1"
             d="m 50.187502,1017.0497 30.06126,0.8561 0.868303,2.8602 45.132945,-1.0913 9.89954,5.0625 -6.02454,0.875 1.52772,10.1455 -94.147619,-7e-4 c 0.428368,-8.6672 3.933827,-15.365 12.682391,-18.7073 z"
             id="path15248"
             inkscape:connector-curvature="0"
             sodipodi:nodetypes="ccccccccc" />
          <path
             style="fill:#000000;fill-rule:evenodd;stroke:#000000;stroke-width:1px;stroke-linecap:butt;stroke-linejoin:miter;stroke-opacity:1"
             d="m 94.045206,1010.1126 c -1.153829,2.854 -1.016346,5.7706 -0.670202,8.6246 l 1.075047,1.7064 c 1.228357,0.3793 6.253639,-7e-4 10.664639,-0.2579 7.17259,3.4032 13.64302,2.4298 14.38532,2.364 1.58561,-0.093 4.69213,-2.1198 5.30434,-3.8193 -0.38369,-0.5811 -3.52356,-1.1621 -5.30434,-1.7432 -2.31056,-0.4849 -8.43475,-5.0558 -12.81527,-7.7585 z"
             id="path15250"
             inkscape:connector-curvature="0"
             sodipodi:nodetypes="ccccccccc" />
          <path
             style="fill:#000000;fill-rule:evenodd;stroke:#f4f2ef;stroke-width:1px;stroke-linecap:round;stroke-linejoin:round;stroke-opacity:1"
             d="m 113.51957,1013.7087 -3.30082,3.0598 -2.8105,-1.8633 3.30086,-3.0598 z"
             id="path15252"
             inkscape:connector-curvature="0"
             sodipodi:nodetypes="ccccc" />
          <path
             style="fill:#e9c13a;fill-rule:evenodd;stroke:#000000;stroke-width:1px;stroke-linecap:butt;stroke-linejoin:miter;stroke-opacity:1"
             d="m 31.500001,1011.4872 c 16.552052,0.088 13.38138,3.5504 18.687501,5.5625 -4.380965,3.9935 -8.847317,6.4785 -12.75,18.9217 l -21.224863,-0.2144 v -29.3635 c 5.078695,1.3646 9.913153,-2.0334 15.287362,5.0937 z"
             id="path15254"
             inkscape:connector-curvature="0"
             sodipodi:nodetypes="cccccc" />
          <g
             style="display:inline"
             id="g15256">
            <path
               style="display:inline;fill:#e9c13a;fill-rule:evenodd;stroke:#000000;stroke-width:1px;stroke-linecap:round;stroke-linejoin:round;stroke-opacity:1"
               d="m 82.376953,802.65234 -11.369141,1.82227 9.142579,49.88477 24.351559,-49.07618 -4.32617,-1.12304 c -2.73179,1.94498 -11.991623,4.4757 -17.798827,0.0137 v -1.52149 z"
               id="path15258"
               inkscape:connector-curvature="0" />
            <path
               style="display:inline;fill:none;fill-rule:evenodd;stroke:#000000;stroke-width:1px;stroke-linecap:butt;stroke-linejoin:miter;stroke-opacity:1"
               d="m 72.959067,815.12078 c 0,0 7.124009,2.0533 11.326676,2.6051 4.202667,0.5518 13.801551,0.48378 13.801551,0.48378"
               id="path15260"
               inkscape:connector-curvature="0"
               sodipodi:nodetypes="czc" />
            <path
               sodipodi:nodetypes="czc"
               inkscape:connector-curvature="0"
               id="path15262"
               d="m 72.959067,817.60109 c 0,0 7.124009,2.0533 11.326676,2.6051 4.202667,0.5518 13.801551,0.48378 13.801551,0.48378"
               style="display:inline;fill:none;fill-rule:evenodd;stroke:#000000;stroke-width:1px;stroke-linecap:butt;stroke-linejoin:miter;stroke-opacity:1" />
            <path
               style="display:inline;fill:none;fill-rule:evenodd;stroke:#000000;stroke-width:1px;stroke-linecap:butt;stroke-linejoin:miter;stroke-opacity:1"
               d="m 72.959067,820.0814 c 0,0 7.124009,2.0533 11.326676,2.6051 4.202667,0.5518 13.801551,0.48378 13.801551,0.48378"
               id="path15264"
               inkscape:connector-curvature="0"
               sodipodi:nodetypes="czc" />
            <path
               sodipodi:nodetypes="czc"
               inkscape:connector-curvature="0"
               id="path15266"
               d="m 72.959067,822.56171 c 0,0 7.124009,2.0533 11.326676,2.6051 4.202667,0.5518 13.801551,0.48378 13.801551,0.48378"
               style="display:inline;fill:none;fill-rule:evenodd;stroke:#000000;stroke-width:1px;stroke-linecap:butt;stroke-linejoin:miter;stroke-opacity:1" />
            <path
               style="display:inline;fill:none;fill-rule:evenodd;stroke:#000000;stroke-width:1px;stroke-linecap:butt;stroke-linejoin:miter;stroke-opacity:1"
               d="m 72.959067,825.04202 c 0,0 7.124009,2.0533 11.326676,2.6051 4.202667,0.5518 13.801551,0.48378 13.801551,0.48378"
               id="path15268"
               inkscape:connector-curvature="0"
               sodipodi:nodetypes="czc" />
            <path
               sodipodi:nodetypes="czc"
               inkscape:connector-curvature="0"
               id="path15270"
               d="m 72.959067,827.52233 c 0,0 7.124009,2.0533 11.326676,2.6051 4.202667,0.5518 13.801551,0.48378 13.801551,0.48378"
               style="display:inline;fill:none;fill-rule:evenodd;stroke:#000000;stroke-width:1px;stroke-linecap:butt;stroke-linejoin:miter;stroke-opacity:1" />
            <path
               style="display:inline;fill:none;fill-rule:evenodd;stroke:#000000;stroke-width:1px;stroke-linecap:butt;stroke-linejoin:miter;stroke-opacity:1"
               d="m 72.959067,830.00264 c 0,0 7.124009,2.0533 11.326676,2.6051 4.202667,0.5518 13.801551,0.48378 13.801551,0.48378"
               id="path15272"
               inkscape:connector-curvature="0"
               sodipodi:nodetypes="czc" />
            <path
               sodipodi:nodetypes="czc"
               inkscape:connector-curvature="0"
               id="path15274"
               d="m 72.959067,832.48295 c 0,0 7.124009,2.0533 11.326676,2.6051 4.202667,0.5518 13.801551,0.48378 13.801551,0.48378"
               style="display:inline;fill:none;fill-rule:evenodd;stroke:#000000;stroke-width:1px;stroke-linecap:butt;stroke-linejoin:miter;stroke-opacity:1" />
            <path
               style="display:inline;fill:none;fill-rule:evenodd;stroke:#000000;stroke-width:1px;stroke-linecap:butt;stroke-linejoin:miter;stroke-opacity:1"
               d="m 72.959067,834.96326 c 0,0 7.124009,2.0533 11.326676,2.6051 4.202667,0.5518 13.801551,0.48378 13.801551,0.48378"
               id="path15276"
               inkscape:connector-curvature="0"
               sodipodi:nodetypes="czc" />
            <path
               sodipodi:nodetypes="czc"
               inkscape:connector-curvature="0"
               id="path15278"
               d="m 72.959067,837.44357 c 0,0 7.124009,2.0533 11.326676,2.6051 4.202667,0.5518 13.801551,0.48378 13.801551,0.48378"
               style="display:inline;fill:none;fill-rule:evenodd;stroke:#000000;stroke-width:1px;stroke-linecap:butt;stroke-linejoin:miter;stroke-opacity:1" />
            <path
               style="fill:none;fill-rule:evenodd;stroke:#000000;stroke-width:1px;stroke-linecap:butt;stroke-linejoin:miter;stroke-opacity:1"
               d="m 99.950325,804.10116 4.550905,1.18207"
               id="path15282"
               inkscape:path-effect="#path-effect5697-16"
               inkscape:original-d="m 99.950325,804.10116 4.550905,1.18207"
               inkscape:connector-curvature="0" />
            <path
               style="fill:#e9c13a;fill-rule:evenodd;stroke:#000000;stroke-width:0.99921262;stroke-linecap:round;stroke-linejoin:round;stroke-miterlimit:4;stroke-dasharray:none;stroke-opacity:1"
               d="m 82.376953,802.65039 c -2.278984,0.10777 -3.777198,0.60731 -5.666015,0.91016 7.559387,10.88859 23.659252,6.86206 27.791012,1.72265 l -3.5625,-0.92578 c -0.18464,-0.0809 -0.28019,-0.33359 -0.41601,-0.50976 l -0.0703,0.11328 c -2.349638,1.96076 -12.070247,4.82761 -18.076167,0.21289 v -1.52344 z"
               id="path15284"
               inkscape:connector-curvature="0" />
            <path
               sodipodi:nodetypes="ccccccc"
               style="display:inline;fill:#000000;fill-rule:evenodd;stroke:#000000;stroke-width:1px;stroke-linecap:round;stroke-linejoin:round;stroke-opacity:1"
               d="m 83.22792,808.96176 2.040399,8.87359 5.507771,-7.37298 4.495335,7.7433 -10.003125,-0.37032 -9.838664,-2.03715 z"
               id="path15288"
               inkscape:connector-curvature="0"
               inkscape:transform-center-x="-9.9190329"
               inkscape:transform-center-y="1.206695" />
          </g>
          <g
             id="g15290">
            <path
               sodipodi:nodetypes="cccccc"
               style="fill:#e9c13a;fill-opacity:1;fill-rule:evenodd;stroke:#000000;stroke-width:1px;stroke-linecap:butt;stroke-linejoin:round;stroke-opacity:1"
               d="m 44.765039,827.70584 5.17509,31.26362 14.9483,2.44491 -9.99353,-47.4531 -2.06682,3.07595 c -1.983476,3.67357 -5.128217,7.1536 -8.06304,10.66862 z"
               id="path15292"
               inkscape:connector-curvature="0" />
            <path
               inkscape:connector-curvature="0"
               id="path15294"
               d="m 44.765039,827.70584 5.17509,31.26362 14.9483,2.44491 -9.99353,-47.4531 -2.06682,3.07595 c -1.983476,3.67357 -5.128217,7.1536 -8.06304,10.66862 z"
               style="fill:url(#rombi-97);fill-opacity:1;fill-rule:evenodd;stroke:#000000;stroke-width:1px;stroke-linecap:butt;stroke-linejoin:round;stroke-opacity:1"
               sodipodi:nodetypes="cccccc" />
          </g>
          <path
             style="fill:#dd1d1d;fill-rule:evenodd;stroke:#000000;stroke-width:1px;stroke-linecap:round;stroke-linejoin:round;stroke-opacity:1"
             d="m 64.33212,856.47154 -3.209463,-0.23773 c -1.114017,-13.79013 -4.021695,-27.3761 -8.649478,-40.41421 0.272304,-1.15795 0.8801,-2.19009 2.093403,-2.99516 2.734161,-4.45085 6.270672,-5.92156 9.81034,-7.38053 7.17937,16.46465 11.519323,34.026 12.835866,51.93954 z"
             id="path15296"
             inkscape:connector-curvature="0"
             sodipodi:nodetypes="ccccccc" />
          <path
             style="fill:#f4f2ef;fill-rule:evenodd;stroke:#000000;stroke-width:0.99921262;stroke-linecap:butt;stroke-linejoin:miter;stroke-miterlimit:4;stroke-dasharray:none;stroke-opacity:1"
             d="m 30.782235,815.85082 c 0.07297,-1.21818 0.464902,-2.22372 0.09277,-3.73863 1.599496,0.94993 -1.58775,-1.53621 -6.625,-9.6875 -1.945804,-3.62756 -5.323007,-8.00151 -3.242417,-10.39017 -0.949186,-2.25207 -0.184114,-3.21854 0.939376,-3.30411 0,0 14.012766,10.17864 20.178042,13.75678 0.830616,0.48206 3.287913,-1.58525 3.287913,-1.58525 2.004,-1.37044 1.682453,-2.69768 3.379776,-3.66292 1.697323,-0.96523 4.529477,-2.28178 4.832311,0.31067 -2.165094,2.30621 -4.611983,5.7396 -7,8.9375 -1.171764,5.49015 -3.104429,1.24576 -3.209863,10.20578 l -12.632904,-0.84215"
             id="path15298"
             inkscape:connector-curvature="0"
             sodipodi:nodetypes="cccccsczcccc" />
          <path
             id="path15300"
             d="m 54.566582,812.82444 a 159.12637,159.12637 0 0 1 9.765538,43.6471"
             style="display:inline;opacity:1;fill:none;fill-opacity:1;stroke:#000000;stroke-width:0.99921262;stroke-linecap:round;stroke-linejoin:round;stroke-miterlimit:4;stroke-dasharray:none;stroke-dashoffset:0"
             inkscape:connector-curvature="0" />
          <path
             inkscape:connector-curvature="0"
             id="path15302"
             d="m 106.27506,805.90781 9.16962,5.2331 c -11.63996,13.52255 -20.469213,29.2286 -25.972229,46.20107 l -8.922331,-0.11476 c 4.723283,-18.78023 13.504162,-36.29746 25.72494,-51.31941 z"
             style="display:inline;opacity:1;fill:#dd1d1d;fill-opacity:1;stroke:#000000;stroke-width:0.99921262;stroke-linecap:round;stroke-linejoin:round;stroke-miterlimit:4;stroke-dasharray:none;stroke-dashoffset:0"
             sodipodi:nodetypes="ccccc" />
          <path
             id="path15304"
             d="m 80.559602,857.0828 c 4.723283,-18.78023 13.34,-35.82158 25.560778,-50.84353 -0.46689,-0.71925 -1.03604,-0.87603 -1.61915,-0.95604 -12.282041,15.24389 -21.083674,32.79726 -25.788684,51.79957 z"
             style="display:inline;opacity:1;fill:#f4f2ef;fill-opacity:1;stroke:#000000;stroke-width:0.99921262;stroke-linecap:round;stroke-linejoin:round;stroke-miterlimit:4;stroke-dasharray:none;stroke-dashoffset:0"
             inkscape:connector-curvature="0"
             sodipodi:nodetypes="ccccc" />
          <g
             id="g15306">
            <path
               inkscape:connector-curvature="0"
               id="path15308"
               d="m 104.5902,825.61928 10.04949,24.02424 -24.64397,6.11804 z"
               style="fill:#e9c13a;fill-rule:evenodd;stroke:#000000;stroke-width:1px;stroke-linecap:butt;stroke-linejoin:miter;stroke-opacity:1" />
            <path
               style="fill:url(#rombi-97);fill-opacity:1;fill-rule:evenodd;stroke:#000000;stroke-width:1px;stroke-linecap:butt;stroke-linejoin:miter;stroke-opacity:1"
               d="m 104.5902,825.61928 10.04949,24.02424 -24.64397,6.11804 z"
               id="path15310"
               inkscape:connector-curvature="0" />
          </g>
          <path
             style="fill:#1780ce;fill-rule:evenodd;stroke:#000000;stroke-width:1px;stroke-linecap:round;stroke-linejoin:round;stroke-opacity:1"
             d="m 79.986328,969.14648 c -0.578727,0.48972 -1.203381,0.92718 -1.898437,1.25 -0.793621,0.3686 -1.623001,0.6065 -2.460938,0.71875 -0.837936,0.11226 -1.685433,0.0998 -2.511719,-0.0352 -0.826285,-0.13497 -1.631957,-0.39257 -2.390625,-0.76563 -0.758668,-0.37305 -1.470384,-0.86283 -2.105468,-1.46484 -0.439095,0.72503 -0.980982,1.37803 -1.605469,1.9375 -0.624488,0.55946 -1.330839,1.02575 -2.09961,1.38281 -0.79362,0.3686 -1.623001,0.6065 -2.460937,0.71875 -0.837936,0.11225 -1.685433,0.0998 -2.511719,-0.0352 -0.178919,-0.0292 -0.340801,-0.12546 -0.517578,-0.16602 3.653839,19.39509 9.323288,32.0011 6.601563,35.3926 3.221003,2.2954 7.126749,2.9934 12.46289,0.3535 -1.29485,-22.34924 8.848201,-14.77313 1.509766,-39.23829 0.005,0.016 -0.01646,-0.0638 -0.01172,-0.0488 z"
             id="path7177"
             inkscape:connector-curvature="0"
             sodipodi:nodetypes="csccscssscccccc" />
          <path
             style="fill:#dd1d1d;fill-rule:evenodd;stroke:#000000;stroke-width:1px;stroke-linecap:round;stroke-linejoin:round;stroke-opacity:1"
             d="m 79.453125,966.46289 c -0.538542,0.4346 -1.100024,0.846 -1.734375,1.14063 -0.793621,0.3686 -1.622923,0.60844 -2.460938,0.7207 -0.838014,0.11226 -1.683167,0.0978 -2.509765,-0.0371 -0.826599,-0.13495 -1.635159,-0.39066 -2.394531,-0.76367 -0.759373,-0.37302 -1.471086,-0.8629 -2.107422,-1.46485 -0.441594,0.72517 -0.984263,1.37605 -1.609375,1.93555 -0.625113,0.5595 -1.332792,1.02771 -2.101563,1.38477 -0.793621,0.3686 -1.623001,0.60649 -2.460937,0.71875 -0.837937,0.11225 -1.68348,0.0978 -2.509766,-0.0371 -0.323968,-0.0529 -0.621311,-0.20889 -0.9375,-0.29883 l 0.02734,0.0996 c -0.30351,2.06889 0.622197,2.33442 0.769531,2.82617 0.176777,0.0406 0.338659,0.13679 0.517578,0.16602 0.826286,0.13496 1.673783,0.14735 2.511719,0.0352 0.837936,-0.11225 1.667317,-0.35015 2.460937,-0.71875 0.768772,-0.35706 1.475122,-0.82335 2.09961,-1.38281 0.624487,-0.55947 1.166374,-1.21247 1.605469,-1.9375 0.635084,0.60201 1.3468,1.09179 2.105468,1.46484 0.758668,0.37306 1.56434,0.63066 2.390625,0.76563 0.826286,0.13496 1.673783,0.14736 2.511719,0.0352 0.837937,-0.11225 1.667317,-0.35015 2.460938,-0.71875 0.695056,-0.32282 1.31971,-0.76028 1.898437,-1.25 0.10741,0.33846 -0.08411,-1.0419 -0.523437,-2.62304 l -0.0098,-0.0606 z"
             id="path7187"
             inkscape:connector-curvature="0" />
          <path
             style="fill:#000000;fill-rule:evenodd;stroke:#000000;stroke-width:1px;stroke-linecap:round;stroke-linejoin:round;stroke-opacity:1"
             d="m 78.595703,960.58398 c -1.307802,0.64796 -2.590165,1.35604 -3.966797,1.83204 -2.154708,0.74502 -4.383566,1.27453 -6.654297,1.58007 -2.261196,0.30426 -4.540975,0.3828 -6.80664,0.23633 -1.426854,-0.0922 -2.825427,-0.4296 -4.232422,-0.69922 0.05799,0.0713 0.01642,0.10185 0.08594,0.17774 l 1.605469,6.05078 c 0.316189,0.0899 0.613532,0.24591 0.9375,0.29883 0.826286,0.13496 1.671829,0.14936 2.509766,0.0371 0.837936,-0.11226 1.667316,-0.35015 2.460937,-0.71875 0.768771,-0.35706 1.47645,-0.82527 2.101563,-1.38477 0.625112,-0.5595 1.167781,-1.21038 1.609375,-1.93555 0.636336,0.60195 1.348049,1.09183 2.107422,1.46485 0.759372,0.37301 1.567932,0.62872 2.394531,0.76367 0.826598,0.13495 1.671751,0.14937 2.509765,0.0371 0.838015,-0.11226 1.667317,-0.3521 2.460938,-0.7207 0.634351,-0.29463 1.195833,-0.70603 1.734375,-1.14063 l -0.869141,-5.69727 0.01172,-0.18164 z"
             id="path7181"
             inkscape:connector-curvature="0" />
          <path
             style="fill:#dd1d1d;fill-rule:evenodd;stroke:#000000;stroke-width:1px;stroke-linecap:round;stroke-linejoin:round;stroke-opacity:1"
             d="m 78.792969,957.49023 c -1.466125,0.81809 -2.930069,1.64972 -4.501953,2.22461 -2.150985,0.7867 -4.386675,1.34121 -6.669922,1.64844 -2.275944,0.30625 -4.572334,0.36375 -6.847656,0.17578 -1.522569,-0.12578 -3.007585,-0.52257 -4.5,-0.86718 0.0442,0.13016 0.07462,0.25447 0.11914,0.38476 0.03077,0.68835 -0.414008,1.30039 0.542969,2.47656 1.406995,0.26962 2.805568,0.60698 4.232422,0.69922 2.265665,0.14647 4.545444,0.0679 6.80664,-0.23633 2.270731,-0.30554 4.499589,-0.83505 6.654297,-1.58007 1.376632,-0.476 2.658995,-1.18408 3.966797,-1.83204 0.338233,-1.03125 0.558718,-2.0625 0.197266,-3.09375 z"
             id="path7173"
             inkscape:connector-curvature="0"
             sodipodi:nodetypes="cssscccssscc" />
          <path
             style="fill:#e9c13a;fill-rule:evenodd;stroke:#000000;stroke-width:1px;stroke-linecap:round;stroke-linejoin:round;stroke-opacity:1"
             d="m 45.166016,912.35547 c 2.308349,15.54815 5.360195,31.39273 11.107422,48.31641 1.492416,0.34462 2.977431,0.7414 4.5,0.86718 2.275323,0.18797 4.571712,0.13047 6.847656,-0.17578 2.283247,-0.30723 4.518937,-0.86174 6.669922,-1.64844 1.571884,-0.57489 3.035828,-1.40652 4.501953,-2.22461 l 5.441406,-17.82226 v -23.24609 z"
             id="path15312"
             inkscape:connector-curvature="0"
             sodipodi:nodetypes="ccssscccc" />
          <path
             style="fill:#1780ce;fill-rule:evenodd;stroke:#000000;stroke-width:0.99921262;stroke-linecap:round;stroke-linejoin:round;stroke-miterlimit:4;stroke-dasharray:none;stroke-opacity:1"
             d="m 112.66602,970.46484 c -0.29179,0.1586 -0.54695,0.37571 -0.85743,0.5 -0.81236,0.32521 -1.65527,0.51715 -2.49804,0.58399 -0.84278,0.0668 -1.68612,0.008 -2.50391,-0.17188 -0.81779,-0.17938 -1.61024,-0.47714 -2.34766,-0.89062 -0.73741,-0.41348 -1.41983,-0.9427 -2.02148,-1.57813 -0.4776,0.70027 -1.05324,1.32273 -1.70703,1.84766 -0.65379,0.52492 -1.384944,0.95255 -2.171876,1.26758 -0.812367,0.32521 -1.655272,0.5191 -2.498047,0.58594 -0.842776,0.0668 -1.686115,0.008 -2.503906,-0.17188 -0.777749,-0.1706 -1.526145,-0.46701 -2.232422,-0.84961 -0.797563,4.07676 -1.362197,6.30264 -1.035157,11.125 1.786587,18.05581 1.854416,2.3819 3.75586,27.40041 3.33145,1.6049 8.980958,3.4689 12.640628,-0.8848 -0.17852,-11.58234 3.2993,-15.84987 4.94922,-23.77538 0.74872,-6.43573 0.20802,-0.60368 1.03125,-14.98828 z"
             id="path7157"
             inkscape:connector-curvature="0" />
          <path
             style="fill:#dd1d1d;fill-rule:evenodd;stroke:#000000;stroke-width:0.99921262;stroke-linecap:round;stroke-linejoin:round;stroke-miterlimit:4;stroke-dasharray:none;stroke-opacity:1"
             d="m 112.95898,967.35742 c -0.44587,0.28411 -0.87167,0.60047 -1.36718,0.79883 -0.81237,0.32521 -1.6552,0.5191 -2.49805,0.58594 -0.84285,0.0668 -1.6858,0.008 -2.50391,-0.17188 -0.8181,-0.17939 -1.61148,-0.4791 -2.34961,-0.89258 -0.73812,-0.41347 -1.42248,-0.94074 -2.02539,-1.57617 -0.48011,0.70026 -1.05652,1.32078 -1.71093,1.84571 -0.654419,0.52492 -1.386901,0.95255 -2.173832,1.26757 -0.812367,0.32521 -1.653318,0.5191 -2.496094,0.58594 -0.842775,0.0668 -1.686114,0.008 -2.503906,-0.17187 -0.743506,-0.1631 -1.455616,-0.45351 -2.134766,-0.81055 -0.110762,0.82098 -0.555661,1.43365 0.128907,2.76953 0.706277,0.3826 1.454673,0.67901 2.232422,0.84961 0.817791,0.17939 1.66113,0.23871 2.503906,0.17188 0.842775,-0.0668 1.68568,-0.26073 2.498047,-0.58594 0.786932,-0.31503 1.518086,-0.74266 2.171876,-1.26758 0.65379,-0.52493 1.22943,-1.14739 1.70703,-1.84766 0.60165,0.63543 1.28407,1.16465 2.02148,1.57813 0.73742,0.41348 1.52987,0.71124 2.34766,0.89062 0.81779,0.17939 1.66113,0.23872 2.50391,0.17188 0.84277,-0.0668 1.68568,-0.25878 2.49804,-0.58399 0.31048,-0.12429 0.56564,-0.3414 0.85743,-0.5 0.0554,-0.9679 0.20193,-0.5521 0.27148,-1.72851 0.10897,-0.47572 0.005,-0.84218 0.0215,-1.37891 z"
             id="path7163"
             inkscape:connector-curvature="0"
             sodipodi:nodetypes="cssssccsscccscsscscsscccc" />
          <path
             style="fill:#000000;fill-rule:evenodd;stroke:#000000;stroke-width:0.99921262;stroke-linecap:round;stroke-linejoin:round;stroke-miterlimit:4;stroke-dasharray:none;stroke-opacity:1"
             d="m 113.00195,961.13086 c -1.38987,0.60554 -2.76245,1.26131 -4.21679,1.67773 -2.1918,0.62759 -4.44656,1.03627 -6.73047,1.21875 -2.274337,0.18171 -4.554144,0.13775 -6.808596,-0.13086 -1.43339,-0.17077 -2.825183,-0.58535 -4.228516,-0.93554 l 0.337891,4.55859 c -0.116427,0.41236 -0.181911,0.84059 -0.160157,1.29883 0.67915,0.35704 1.39126,0.64745 2.134766,0.81055 0.817792,0.17938 1.661131,0.23871 2.503906,0.17187 0.842776,-0.0668 1.683727,-0.26073 2.496094,-0.58594 0.786931,-0.31502 1.519413,-0.74265 2.173832,-1.26757 0.65441,-0.52493 1.23082,-1.14545 1.71093,-1.84571 0.60291,0.63543 1.28727,1.1627 2.02539,1.57617 0.73813,0.41348 1.53151,0.71319 2.34961,0.89258 0.81811,0.17939 1.66106,0.23872 2.50391,0.17188 0.84285,-0.0668 1.68568,-0.26073 2.49805,-0.58594 0.49551,-0.19836 0.92131,-0.51472 1.36718,-0.79883 0,0 0.32499,-2.06705 0.33204,-3.10938 0.007,-1.03895 -0.28907,-3.10351 -0.28907,-3.10351 0.002,-0.007 -0.002,-0.007 0,-0.0137 z"
             id="path7161"
             inkscape:connector-curvature="0"
             sodipodi:nodetypes="csssccccssccsssscsccc" />
          <path
             style="fill:#dd1d1d;fill-rule:evenodd;stroke:#000000;stroke-width:0.99921262;stroke-linecap:round;stroke-linejoin:round;stroke-miterlimit:4;stroke-dasharray:none;stroke-opacity:1"
             d="m 113.20508,958.11719 c -1.50718,0.73703 -3.01182,1.48772 -4.61133,1.97656 -2.19033,0.6694 -4.45349,1.10167 -6.75,1.28516 -2.289164,0.18289 -4.583848,0.11719 -6.845703,-0.19336 -1.486112,-0.20405 -2.921288,-0.67667 -4.367188,-1.08985 0,0 -0.307175,1.01451 -0.235292,1.52322 0.06899,0.4882 0.62201,1.34202 0.62201,1.34202 1.403333,0.35019 2.795126,0.76477 4.228516,0.93554 2.254452,0.26861 4.534259,0.31257 6.808597,0.13086 2.28391,-0.18248 4.53867,-0.59116 6.73047,-1.21875 1.45434,-0.41642 2.82692,-1.07219 4.21679,-1.67773 0.39259,-1.50718 0.30237,-2.26644 0.20313,-3.01367 z"
             id="path7155"
             inkscape:connector-curvature="0"
             sodipodi:nodetypes="cssscscssscc" />
          <path
             style="fill:#e9c13a;fill-rule:evenodd;stroke:#000000;stroke-width:0.99921262;stroke-linecap:round;stroke-linejoin:round;stroke-miterlimit:4;stroke-dasharray:none;stroke-opacity:1"
             d="m 115.75,913.92383 -28.375,0.0625 -7.9375,2.6875 c 3.204724,25.79875 7.798022,25.20981 11.3125,42.6875 -0.03453,0.24728 -0.07184,0.49376 -0.119141,0.73437 1.4459,0.41318 2.881076,0.8858 4.367188,1.08985 2.261855,0.31055 4.556539,0.37625 6.845703,0.19336 2.29651,-0.18349 4.55967,-0.61576 6.75,-1.28516 1.59951,-0.48884 3.10415,-1.23953 4.61133,-1.97656 -0.0323,-0.24312 -0.0631,-0.48909 -0.0801,-0.75586 0.875,-14.47917 2.8637,-1.6726 2.625,-43.4375 z"
             id="path15318"
             inkscape:connector-curvature="0" />
          <path
             style="opacity:1;fill:none;fill-opacity:1;stroke:#e9c13a;stroke-width:0.64488214;stroke-linecap:round;stroke-linejoin:round;stroke-miterlimit:4;stroke-dasharray:none;stroke-dashoffset:0"
             id="path15324"
             sodipodi:type="arc"
             sodipodi:cx="84.720795"
             sodipodi:cy="758.41345"
             sodipodi:rx="159.12639"
             sodipodi:ry="159.12639"
             sodipodi:start="1.2978993"
             sodipodi:end="1.9341488"
             sodipodi:open="true"
             d="M 127.60892,911.65123 A 159.12639,159.12639 0 0 1 28.165714,907.15057" />
          <path
             style="opacity:1;fill:#dd1d1d;fill-opacity:1;stroke:#000000;stroke-width:0.99921262;stroke-linecap:round;stroke-linejoin:round;stroke-miterlimit:4;stroke-dasharray:none;stroke-dashoffset:0"
             d="m 41.894531,883.85547 -13.728515,23.29492 a 159.12639,159.12639 0 0 0 99.443364,4.5 l -12.69922,-24.24414 z"
             id="path15326"
             inkscape:connector-curvature="0" />
          <path
             style="opacity:1;fill:none;fill-opacity:1;stroke:#000000;stroke-width:0.99921262;stroke-linecap:round;stroke-linejoin:round;stroke-miterlimit:4;stroke-dasharray:none;stroke-dashoffset:0"
             d="M 125.07128,906.83781 A 153.81142,153.81142 0 0 1 30.908892,902.5045"
             id="path15328"
             inkscape:connector-curvature="0" />
          <path
             style="opacity:1;fill:none;fill-opacity:1;stroke:#000000;stroke-width:0.99921262;stroke-linecap:round;stroke-linejoin:round;stroke-miterlimit:4;stroke-dasharray:none;stroke-dashoffset:0"
             d="M 122.60341,901.99655 A 148.49646,148.49646 0 0 1 33.626329,897.84284"
             id="path15330"
             inkscape:connector-curvature="0" />
          <path
             style="opacity:1;fill:none;fill-opacity:1;stroke:#000000;stroke-width:0.99921262;stroke-linecap:round;stroke-linejoin:round;stroke-miterlimit:4;stroke-dasharray:none;stroke-dashoffset:0"
             d="M 117.47629,892.3323 A 137.86653,137.86653 0 0 1 39.161049,888.53451"
             id="path15332"
             inkscape:connector-curvature="0" />
          <path
             style="opacity:1;fill:#e9c13a;fill-opacity:1;stroke:#000000;stroke-width:0.99921262;stroke-linecap:round;stroke-linejoin:round;stroke-miterlimit:4;stroke-dasharray:none;stroke-dashoffset:0"
             d="m 114.95468,887.47093 c -24.198383,5.66888 -49.503089,4.42029 -73.025862,-3.60324 3.222041,-5.59065 6.13267,-11.49271 8.182316,-18.25576 17.762316,3.96156 37.978099,4.40264 58.339936,1.27289 1.35338,6.49777 3.45611,13.31669 6.45909,20.52143"
             id="path15334"
             inkscape:connector-curvature="0"
             sodipodi:nodetypes="ccccc" />
          <path
             style="fill:none;fill-rule:evenodd;stroke:#000000;stroke-width:1;stroke-linecap:round;stroke-linejoin:round;stroke-miterlimit:4;stroke-dasharray:none;stroke-opacity:1"
             d="m 117.47629,892.3323 -1.17146,11.1799 -8.14613,-9.2391 -4.57961,11.43449 -7.312643,-9.9119 -5.555738,10.99336 -6.423793,-10.50975 -6.489879,10.46911 -5.486435,-11.02812 -7.374886,9.86568 -4.507546,-11.46309 -8.204123,9.18764 -3.494595,-11.81137 -8.971334,8.44012 -0.597069,-11.40476"
             id="path15336"
             inkscape:connector-curvature="0" />
          <g
             transform="matrix(0.84285718,0,0,0.84285718,-1818.5112,825.55411)"
             id="g15338"
             style="display:inline;enable-background:new">
            <g
               id="g15340">
              <circle
                 r="24.803148"
                 cy="-54.921223"
                 cx="2205.7085"
                 id="circle15342"
                 style="opacity:1;fill:#000000;fill-opacity:1;stroke:none;stroke-width:1.77165353;stroke-linejoin:round;stroke-miterlimit:4;stroke-dasharray:none;stroke-dashoffset:0;stroke-opacity:1" />
              <path
                 d="m 2192.0036,-68.418535 8.0825,0.211397 5.4756,-5.948977 5.5657,5.864693 8.0784,-0.334763 -0.2114,8.082531 5.9489,5.475551 -5.8647,5.565732 0.3348,8.078362 -8.0825,-0.211398 -5.4756,5.948977 -5.5657,-5.864693 -8.0784,0.334763 0.2114,-8.082531 -5.9489,-5.475551 5.8646,-5.565732 z"
                 inkscape:randomized="0"
                 inkscape:rounded="0"
                 inkscape:flatsided="false"
                 sodipodi:arg2="-1.9711288"
                 sodipodi:arg1="-2.3638279"
                 sodipodi:r2="14.426552"
                 sodipodi:r1="19.235403"
                 sodipodi:cy="-54.921272"
                 sodipodi:cx="2205.7085"
                 sodipodi:sides="8"
                 id="path15344"
                 style="opacity:1;fill:none;fill-opacity:1;stroke:#dd1d1d;stroke-width:3.36313891;stroke-linejoin:round;stroke-miterlimit:4;stroke-dasharray:none;stroke-dashoffset:0;stroke-opacity:1"
                 sodipodi:type="star" />
              <ellipse
                 ry="23.031487"
                 rx="23.031496"
                 cy="-54.921238"
                 cx="2205.7085"
                 id="ellipse15346"
                 style="opacity:1;fill:none;fill-opacity:0.94117647;stroke:#f4f2ef;stroke-width:2.10196185;stroke-linejoin:round;stroke-miterlimit:4;stroke-dasharray:none;stroke-dashoffset:0;stroke-opacity:1" />
            </g>
          </g>
          <path
             style="fill:none;fill-rule:evenodd;stroke:#000000;stroke-width:1px;stroke-linecap:butt;stroke-linejoin:miter;stroke-opacity:1"
             d="M 57.356326,867.01112 C 55.840519,873.68826 54.9177,880.48399 52.3328,886.94731"
             id="path15348"
             inkscape:connector-curvature="0"
             sodipodi:nodetypes="cc" />
          <path
             style="fill:none;fill-rule:evenodd;stroke:#000000;stroke-width:1px;stroke-linecap:butt;stroke-linejoin:miter;stroke-opacity:1"
             d="m 64.620095,868.00921 c -1.054102,6.96312 -1.464127,14.03359 -3.811428,20.78118"
             id="path15350"
             inkscape:connector-curvature="0"
             sodipodi:nodetypes="cc" />
          <path
             style="fill:none;fill-rule:evenodd;stroke:#000000;stroke-width:1px;stroke-linecap:butt;stroke-linejoin:miter;stroke-opacity:1"
             d="m 71.883575,868.63807 c -0.701388,7.1893 -0.533153,14.66847 -2.49665,21.43706"
             id="path15352"
             inkscape:connector-curvature="0"
             sodipodi:nodetypes="cc" />
          <path
             style="fill:none;fill-rule:evenodd;stroke:#000000;stroke-width:1px;stroke-linecap:butt;stroke-linejoin:miter;stroke-opacity:1"
             d="m 79.136168,868.9236 c -0.270851,7.34939 0.214266,15.15236 -1.105326,21.8725"
             id="path15354"
             inkscape:connector-curvature="0"
             sodipodi:nodetypes="cc" />
          <path
             style="fill:none;fill-rule:evenodd;stroke:#000000;stroke-width:1px;stroke-linecap:butt;stroke-linejoin:miter;stroke-opacity:1"
             d="m 86.373353,868.88589 0.330059,22.06433"
             id="path15356"
             inkscape:connector-curvature="0" />
          <path
             style="fill:none;fill-rule:evenodd;stroke:#000000;stroke-width:1px;stroke-linecap:butt;stroke-linejoin:miter;stroke-opacity:1"
             d="m 93.594907,868.5395 c 0.466708,7.35727 0.2494,14.85135 1.772577,21.99733"
             id="path15358"
             inkscape:connector-curvature="0"
             sodipodi:nodetypes="cc" />
          <path
             style="fill:none;fill-rule:evenodd;stroke:#000000;stroke-width:1px;stroke-linecap:butt;stroke-linejoin:miter;stroke-opacity:1"
             d="m 100.80353,867.89375 c 0.77957,7.18111 0.88247,14.26555 3.18244,21.66386"
             id="path15360"
             inkscape:connector-curvature="0"
             sodipodi:nodetypes="cc" />
          <path
             inkscape:connector-curvature="0"
             style="opacity:1;fill:#dd1d1d;fill-opacity:1;stroke:#000000;stroke-width:0.99921268;stroke-linecap:round;stroke-linejoin:round;stroke-miterlimit:4;stroke-dasharray:none;stroke-dashoffset:0"
             d="m 108.45106,867.02184 c -20.361826,2.92172 -40.577616,2.50995 -58.339926,-1.18829 -0.417893,-3.9514 0.02125,-8.25841 -1.345511,-11.81613 17.762311,3.69824 37.978097,4.11 58.339927,1.18828 l 1.34552,11.81614"
             id="path15362"
             sodipodi:nodetypes="ccccc" />
          <path
             inkscape:connector-curvature="0"
             style="opacity:1;fill:none;fill-opacity:1;stroke:#000000;stroke-width:0.99921268;stroke-linecap:round;stroke-linejoin:round;stroke-miterlimit:4;stroke-dasharray:none;stroke-dashoffset:0"
             d="m 49.644416,857.91905 c 17.762311,3.69823 37.978101,4.10998 58.339934,1.18827"
             id="path15364" />
          <path
             inkscape:connector-curvature="0"
             style="opacity:1;fill:none;fill-opacity:1;stroke:#000000;stroke-width:0.99921268;stroke-linecap:round;stroke-linejoin:round;stroke-miterlimit:4;stroke-dasharray:none;stroke-dashoffset:0"
             d="m 49.871029,861.54209 c 17.762311,3.69822 37.978101,4.10999 58.339921,1.18828"
             id="path15366" />
          <path
             style="fill:#1780ce;fill-rule:evenodd;stroke:#000000;stroke-width:1px;stroke-linecap:butt;stroke-linejoin:miter;stroke-opacity:1"
             d="m 29.750001,823.11219 c -5.999823,21.3327 -7.564659,41.08342 5.000001,44.25001 0.731735,0.18441 1.426657,0.21247 2.171875,0.0937 0.49719,-0.0792 0.988878,-0.27395 1.453125,-0.46875 3.130365,-1.31352 7.988216,-5.44704 11.195317,-9.66691 -3.840986,-29.78323 -4.323387,-26.89659 -5.757817,-33.2706 z"
             id="path15368"
             inkscape:connector-curvature="0"
             sodipodi:nodetypes="csssccc" />
          <path
             style="fill:#1780ce;fill-rule:evenodd;stroke:#000000;stroke-width:1px;stroke-linecap:butt;stroke-linejoin:miter;stroke-opacity:1"
             d="m 99.348507,850.30643 c 2.785363,5.79986 3.342573,11.37691 1.414213,16.7054 0,0 17.56118,0.11564 25.86229,-2.33713 0.42898,-0.12675 0.83839,-0.34534 1.1875,-0.625 0.4268,-0.34189 0.77355,-0.78572 1.0625,-1.25 0.35992,-0.5783 0.59507,-1.22947 0.8125,-1.875 8.99274,-26.69823 -11.30365,-51.57744 -11.81814,-49.30524 -5.8772,5.92037 -10.50708,12.58149 -14.40867,20.45458 1.58623,5.1163 3.49597,10.63153 5.71608,13.84622 -3.73159,0.86455 -7.16779,2.68273 -9.828273,4.38617 z"
             id="path15370"
             inkscape:connector-curvature="0"
             sodipodi:nodetypes="ccsssscccc" />
          <path
             style="fill:none;fill-rule:evenodd;stroke:#000000;stroke-width:0.99921262;stroke-linecap:round;stroke-linejoin:round;stroke-miterlimit:4;stroke-dasharray:none;stroke-opacity:1"
             d="m 109.17678,845.92026 c 1.40073,-0.24693 2.72271,-0.52249 5.90485,-0.12163"
             id="path15372"
             inkscape:connector-curvature="0"
             sodipodi:nodetypes="cc" />
          <g
             id="g15376"
             inkscape:transform-center-x="-14.102237"
             inkscape:transform-center-y="2.243837"
             transform="matrix(0.94185694,-0.31609601,0.31380698,0.94872721,-314.1145,101.62079)">
            <path
               sodipodi:nodetypes="ccccccccc"
               inkscape:connector-curvature="0"
               d="m 193.82745,826.44157 c -8.6231,-0.6397 -17.13296,-0.65661 -25.52036,1e-5 -0.33665,0.67545 -0.33,1.39382 0,2.1526 l -10e-6,8.87198 c -0.23793,0.70641 -0.41791,1.42007 0,2.20847 8.93894,-0.55563 17.40598,-0.50453 25.52036,-10e-6 0.26043,-0.63409 0.62318,-1.23096 0,-2.18636 l 1e-5,-8.91618 c 0.19365,-0.66714 0.5228,-1.30416 0,-2.13051 z"
               style="display:inline;fill:#e9c13a;fill-rule:evenodd;stroke:#000000;stroke-width:1.00285029;stroke-linecap:round;stroke-linejoin:round;stroke-miterlimit:4;stroke-dasharray:none;stroke-opacity:1"
               id="path15378" />
            <path
               sodipodi:nodetypes="cc"
               inkscape:connector-curvature="0"
               id="path15380"
               d="m 168.30709,828.59418 c 8.39165,-0.63325 16.89304,-0.66297 25.52037,0"
               style="fill:none;fill-rule:evenodd;stroke:#000000;stroke-width:1.00364053px;stroke-linecap:butt;stroke-linejoin:miter;stroke-opacity:1" />
            <path
               sodipodi:nodetypes="cc"
               inkscape:connector-curvature="0"
               id="path15382"
               d="m 168.30709,837.47721 c 8.44922,-0.57568 16.9533,-0.6027 25.52036,0"
               style="fill:none;fill-rule:evenodd;stroke:#000000;stroke-width:1.00364053px;stroke-linecap:butt;stroke-linejoin:miter;stroke-opacity:1" />
            <path
               inkscape:connector-curvature="0"
               id="path15384"
               d="m 168.30709,837.47721 3.64576,-9.11953 3.64577,8.76127 3.64576,-9.00036 3.64577,8.92473 3.64577,-8.84749 3.64576,9.06249 3.64577,-8.66414"
               style="fill:none;fill-rule:evenodd;stroke:#000000;stroke-width:1.00364053px;stroke-linecap:round;stroke-linejoin:round;stroke-opacity:1" />
          </g>
          <path
             inkscape:connector-curvature="0"
             id="path15386"
             d="m 77.192649,857.1126 c -1.316543,-17.91354 -5.636357,-35.20404 -12.815727,-51.66869 0.928954,-0.85971 1.948756,-0.81095 3.002083,-0.42693 7.249793,16.49414 11.645754,34.09971 13.000388,52.06582 z"
             style="display:inline;opacity:1;fill:#dd1d1d;fill-opacity:1;stroke:#000000;stroke-width:0.99921262;stroke-linecap:round;stroke-linejoin:round;stroke-miterlimit:4;stroke-dasharray:none;stroke-dashoffset:0"
             sodipodi:nodetypes="ccccc" />
          <path
             inkscape:connector-curvature="0"
             id="path15388"
             d="m 67.379005,805.01698 c 1.116655,0.37675 2.345975,0.0775 3.628802,-0.54278 7.272913,16.81637 11.659303,34.33317 12.960947,52.6086 H 80.379393 C 79.024759,839.11669 74.628798,821.51112 67.379005,805.01698 Z"
             style="display:inline;opacity:1;fill:#f4f2ef;fill-opacity:1;stroke:#000000;stroke-width:0.99921262;stroke-linecap:round;stroke-linejoin:round;stroke-miterlimit:4;stroke-dasharray:none;stroke-dashoffset:0"
             sodipodi:nodetypes="ccccc" />
          <path
             id="path15390"
             d="m 89.559497,856.82098 c 5.503016,-16.97247 14.245223,-32.15752 25.885183,-45.68007 0.97829,-0.0672 1.79985,0.0745 2.42469,0.47855 -11.34187,13.30197 -19.978247,28.59078 -25.424687,45.20152 h -2.885186"
             style="display:inline;opacity:1;fill:#dd1d1d;fill-opacity:1;stroke:#000000;stroke-width:0.99921262;stroke-linecap:round;stroke-linejoin:round;stroke-miterlimit:4;stroke-dasharray:none;stroke-dashoffset:0"
             inkscape:connector-curvature="0"
             sodipodi:nodetypes="cccc" />
          <path
             style="fill:none;fill-rule:evenodd;stroke:#000000;stroke-width:1;stroke-linecap:round;stroke-linejoin:round;stroke-miterlimit:4;stroke-dasharray:none;stroke-opacity:1"
             d="m 106.12038,806.23927 4.47857,10.84529 -11.676622,-1.14882 5.324822,10.10495 -11.402453,-0.17791 6.02051,9.23066 -10.949492,0.66815 6.544274,8.27708 -10.383282,1.36285 6.895014,7.29867"
             id="path15392"
             inkscape:connector-curvature="0" />
          <path
             style="fill:none;fill-rule:evenodd;stroke:#000000;stroke-width:1px;stroke-linecap:round;stroke-linejoin:round;stroke-opacity:1"
             d="m 59.483105,807.80941 6.106827,0.49209 -9.162104,9.72228 13.172258,1.07983 -10.185575,8.78377 13.229104,1.59438 -11.023079,7.768 13.240672,2.06345 -11.703246,6.72778 13.023142,2.51554 -12.042914,5.67053 13.207157,2.87439"
             id="path15394"
             inkscape:connector-curvature="0" />
          <path
             style="fill:#f4f2ef;fill-rule:evenodd;stroke:#000000;stroke-width:0.99921262;stroke-linecap:round;stroke-linejoin:round;stroke-miterlimit:4;stroke-dasharray:none;stroke-opacity:1"
             d="m 93.17868,853.47455 c -2.406796,0.30074 -4.5625,-2.30776 -6.027765,-2.77037 -2.448596,-0.34669 -4.816083,-1.05121 -5.76577,-1.15885 -1.672779,-0.18959 -6.396378,0.0974 -6.439405,1.07582 0.913244,2.9991 5.010918,1.64862 5.001524,1.62983 1.443676,1.25053 2.577994,1.35035 4.02167,1.63518 0.218415,0.26476 -4.745649,1.18721 -8.968931,-0.55521 -1.809052,-0.74637 -4.152416,-1.27014 -6.125,-1.90625 -0.218106,-0.0703 -0.48545,-0.10813 -0.6875,0 -0.26491,0.14178 -0.444462,0.45471 -0.5,0.75 -0.09402,0.49991 0.110177,1.0305 0.327334,1.49049 0.111973,0.23718 0.486135,0.61872 0.486135,0.61872 0,0 -0.363911,-0.11461 -0.552427,-0.13258 -0.16148,-0.0154 -0.351329,-0.0681 -0.486136,0.0221 -0.101326,0.0678 -0.126709,0.21279 -0.154679,0.33146 -0.06423,0.27253 -0.05561,0.56171 -0.0221,0.83969 0.03015,0.25013 0.06977,0.51285 0.198873,0.7292 0.328376,0.55029 1.392117,1.32583 1.392117,1.32583 0,0 -0.329379,-0.0411 -0.486136,0 -0.130802,0.0343 -0.276369,0.0879 -0.353553,0.19887 -0.08088,0.11633 -0.06525,0.27817 -0.06629,0.41985 -0.0015,0.20833 -0.01633,0.43862 0.08839,0.61872 0.936866,1.61117 4.419417,3.42504 4.419417,3.42504 0,0 -0.42476,-0.0345 -0.574524,0.0884 -0.133275,0.1094 -0.203341,0.13291 -0.224762,0.304 -0.09505,0.30554 0.216948,0.58897 0.397743,0.72273 2.634829,1.94927 4.959905,3.64846 7.958743,3.65785 5.054483,0.0158 7.450895,-0.0557 11.225321,-0.97226 1.354267,-0.51266 2.460472,-1.396 3.520624,-1.68499 1.591638,-2.86559 0.923021,-8.92829 -1.602913,-10.70327 z"
             id="path15396"
             inkscape:connector-curvature="0"
             sodipodi:nodetypes="ccscccssssscssssscsssscscssccc" />
          <path
             style="fill:none;fill-rule:evenodd;stroke:#000000;stroke-width:0.6448819;stroke-linecap:round;stroke-linejoin:round;stroke-miterlimit:4;stroke-dasharray:none;stroke-opacity:1"
             d="m 68.500972,854.28391 c 3.736123,2.22854 5.804169,2.62219 8.706253,3.93328"
             id="path15398"
             inkscape:connector-curvature="0"
             sodipodi:nodetypes="cc" />
          <path
             style="fill:#f4f2ef;fill-rule:evenodd;stroke:#000000;stroke-width:1px;stroke-linecap:round;stroke-linejoin:round;stroke-opacity:1"
             d="m 99.348507,850.30643 -6.598503,2.30577 c 2.383898,4.49223 2.403853,9.05012 1.8125,13.625 l 6.200216,0.77463 c 1.90477,-5.6109 1.34736,-11.17783 -1.414213,-16.7054"
             id="path15400"
             inkscape:connector-curvature="0"
             sodipodi:nodetypes="ccccc" />
          <path
             style="fill:none;fill-rule:evenodd;stroke:#000000;stroke-width:0.6448819;stroke-linecap:round;stroke-linejoin:round;stroke-miterlimit:4;stroke-dasharray:none;stroke-opacity:1"
             d="m 68.87662,857.39961 c 3.519682,2.71019 5.217672,2.83964 7.826508,4.25946"
             id="path15402"
             inkscape:connector-curvature="0"
             sodipodi:nodetypes="cc" />
          <path
             style="fill:none;fill-rule:evenodd;stroke:#000000;stroke-width:1px;stroke-linecap:butt;stroke-linejoin:miter;stroke-opacity:1"
             d="m 96.049255,851.45932 c 2.487246,4.89819 2.517018,10.02226 1.613357,15.16519"
             id="path15404"
             inkscape:connector-curvature="0"
             sodipodi:nodetypes="cc" />
          <path
             style="fill:none;fill-rule:evenodd;stroke:#000000;stroke-width:0.6448819;stroke-linecap:round;stroke-linejoin:round;stroke-miterlimit:4;stroke-dasharray:none;stroke-opacity:1"
             d="m 72.478448,862.06209 c 1.969175,1.18962 2.659739,1.42028 3.977476,2.12132"
             id="path15406"
             inkscape:connector-curvature="0"
             sodipodi:nodetypes="cc" />
          <path
             style="fill:#f4f2ef;fill-rule:evenodd;stroke:#000000;stroke-width:1px;stroke-linecap:butt;stroke-linejoin:miter;stroke-opacity:1"
             d="m 29.750001,823.11219 14.062501,0.93745 c 0.950612,-1.79357 0.475912,-2.92199 0.233256,-4.1587 L 30.33782,818.97713 c -0.857914,1.3048 -1.225731,2.66406 -0.587819,4.13506 z"
             id="path15408"
             inkscape:connector-curvature="0"
             sodipodi:nodetypes="ccccc" />
          <path
             sodipodi:nodetypes="ccccc"
             inkscape:connector-curvature="0"
             id="path15410"
             d="m 30.33782,818.97713 13.707938,0.91381 c 0.462286,-0.9724 1.006926,-1.92936 0.176348,-3.14418 l -13.439871,-0.89594 c -0.712723,1.08243 -0.898113,2.12719 -0.444415,3.12631 z"
             style="fill:#f4f2ef;fill-rule:evenodd;stroke:#000000;stroke-width:1px;stroke-linecap:butt;stroke-linejoin:miter;stroke-opacity:1" />
          <path
             style="fill:#f4f2ef;fill-rule:evenodd;stroke:#000000;stroke-width:0.6448819;stroke-linecap:round;stroke-linejoin:round;stroke-miterlimit:4;stroke-dasharray:none;stroke-opacity:1"
             d="m 21.007588,792.03452 c 2.143695,4.362 3.608241,6.28112 4.949747,7.68979"
             id="path15413"
             inkscape:connector-curvature="0"
             sodipodi:nodetypes="cc" />
          <path
             style="fill:#f4f2ef;fill-rule:evenodd;stroke:#000000;stroke-width:0.6448819;stroke-linecap:round;stroke-linejoin:round;stroke-miterlimit:4;stroke-dasharray:none;stroke-opacity:1"
             d="m 21.964505,788.69975 c 3.714817,6.29657 5.230767,7.09597 7.689787,10.25305"
             id="path15415"
             inkscape:connector-curvature="0"
             sodipodi:nodetypes="cc" />
          <path
             style="fill:#f4f2ef;fill-rule:evenodd;stroke:#000000;stroke-width:0.6448819;stroke-linecap:round;stroke-linejoin:round;stroke-miterlimit:4;stroke-dasharray:none;stroke-opacity:1"
             d="m 44.505506,810.42896 c -0.480881,0.76757 -1.785945,1.10759 -3.349254,1.27698"
             id="path15417"
             inkscape:connector-curvature="0"
             sodipodi:nodetypes="cc" />
          <ellipse
             ry="3.9375002"
             rx="2.5625"
             cy="979.93164"
             cx="25.490959"
             id="ellipse15423"
             style="opacity:1;fill:#dd1d1d;fill-opacity:1;stroke:#000000;stroke-width:0.6448819;stroke-linecap:round;stroke-linejoin:round;stroke-miterlimit:4;stroke-dasharray:none;stroke-dashoffset:0"
             transform="rotate(-4.5359493)" />
          <path
             style="fill:#000000;fill-rule:evenodd;stroke:#000000;stroke-width:1px;stroke-linecap:butt;stroke-linejoin:miter;stroke-opacity:1"
             d="m 46.149051,1016.193 c -0.660325,2.7815 0.509484,2.5092 6.413451,3.4192 6.679939,-0.041 10.702882,0 17.96728,-1.9832 0,0 0.388425,1.3422 0.960798,1.4971 4.483162,1.2135 7.711243,-0.3094 7.399587,-0.3094 l -0.401312,-10.3835 -12.462757,-0.3536 c -14.742518,9.8326 -11.693828,6.9257 -19.877047,8.1134 z"
             id="path15425"
             inkscape:connector-curvature="0"
             sodipodi:nodetypes="cccscccc" />
          <path
             style="fill:#000000;fill-rule:evenodd;stroke:#f4f2ef;stroke-width:1px;stroke-linecap:round;stroke-linejoin:round;stroke-opacity:1"
             d="m 62.120181,1014.9815 2.651053,-1.7945 -3.518106,-2.1022 -2.65101,1.7945 z"
             id="path15427"
             inkscape:connector-curvature="0"
             sodipodi:nodetypes="ccccc" />
          <ellipse
             style="opacity:1;fill:#dd1d1d;fill-opacity:1;stroke:#000000;stroke-width:0.6448819;stroke-linecap:round;stroke-linejoin:round;stroke-miterlimit:4;stroke-dasharray:none;stroke-dashoffset:0"
             id="ellipse15431"
             cx="-60.340923"
             cy="975.32849"
             rx="2.5625"
             ry="3.9375002"
             transform="rotate(-7.6130459)" />
          <path
             inkscape:connector-curvature="0"
             style="display:inline;fill:#f4f2ef;fill-rule:evenodd;stroke:#000000;stroke-width:0.82204723;stroke-linecap:butt;stroke-linejoin:miter;stroke-miterlimit:4;stroke-dasharray:none;stroke-opacity:1"
             d="m 7.6258673,740.9628 c -3.9977695,0 -7.21484368,4.7281 -7.21484368,10.60156 v 289.78524 c 0,5.8734 3.21707418,10.6016 7.21484368,10.6016 H 144.73329 c 3.99777,0 7.21679,-4.7282 7.21679,-10.6016 V 751.56436 c 0,-5.87346 -3.21902,-10.60156 -7.21679,-10.60156 z M 21.995008,756.84171 H 130.3661 c 3.15991,0 5.70312,4.24591 5.70312,9.51953 v 260.18956 c 0,5.2737 -2.54321,9.5195 -5.70312,9.5195 H 21.995008 c -3.159904,0 -5.705078,-4.2458 -5.705078,-9.5195 V 766.36124 c 0,-5.27362 2.545174,-9.51953 5.705078,-9.51953 z"
             id="path10145" />
        </g>
        <path
           id="path8238"
           style="fill:#1780ce;fill-rule:evenodd;stroke:none;stroke-width:1px;stroke-linecap:butt;stroke-linejoin:miter;stroke-opacity:1"
           d="m 107.85156,791.59375 c -0.48206,0.0211 -0.95335,0.18523 -1.40429,0.33984 -0.4164,0.14945 -0.83032,0.17809 -1.26368,0.15039 -0.2503,-0.0158 -1.41301,0.19914 -0.77343,0.58985 0.20843,0.129 0.53998,0.0726 0.77343,0.0723 0.71186,-10e-4 2.59917,-0.24356 2.66797,-1.15234 z m 0.90821,-2.72656 c -0.8517,0.30992 -1.64285,0.74997 -2.54493,0.92383 -0.36027,0.0694 -0.75626,0.11036 -0.78906,0.53125 1.00148,0 1.64877,-0.31006 2.54688,-0.69336 0.34835,-0.14878 0.86121,-0.2975 0.78711,-0.76172 z m 1.15429,-0.67188 c -0.28143,0.0407 -0.28653,0.47177 -0.36523,0.67188 -0.15154,0.38466 -0.52353,0.80469 -0.84961,1.05273 -1.35791,1.03343 -3.11558,0.79034 -4.66602,1.08203 -0.27559,0.0519 -0.49251,0.46085 -0.16406,0.61719 0.45344,0.21699 1.21816,-0.0346 1.67969,-0.11719 1.56007,-0.27575 2.89681,-0.45565 4.04687,-1.63867 0.27982,-0.28774 0.53157,-0.83628 0.57618,-1.23828 0.0172,-0.15527 -0.0392,-0.46079 -0.25782,-0.42969 z m -33.677732,-2.33008 c -0.06652,-0.01 -0.130137,-0.007 -0.185547,0.0137 -0.404892,0.15532 0.160055,0.81544 0.310547,0.95117 0.474621,0.4288 1.905509,1.43303 2.576172,1.13672 0.424154,-0.18743 0.115335,-0.66264 -0.130859,-0.86328 -0.567335,-0.46265 -1.3048,-0.76845 -1.986329,-1.01563 -0.152867,-0.0561 -0.384417,-0.19336 -0.583984,-0.22266 z m -0.607422,-2.20898 c -0.362687,0.0524 -0.611397,0.52417 -0.304687,0.81641 0.491114,0.46815 1.279357,0.52922 1.859375,0.81836 0.436181,0.21739 0.872329,0.63867 1.392578,0.63867 0.605294,-0.007 0.09757,-0.72498 -0.121094,-0.88477 -0.736677,-0.53997 -1.752848,-1.19671 -2.666016,-1.38476 -0.05519,-0.011 -0.108346,-0.0109 -0.160156,-0.004 z m 36.949214,-0.0625 c -0.76211,0.0242 -0.87551,0.78524 -1.20703,1.33398 -0.36317,0.60092 -0.95348,1.17701 -1.51953,1.58985 -1.28178,0.93492 -2.58134,1.94041 -4.18164,2.24023 -0.49664,0.0924 -0.95544,0.1048 -1.45508,0.0586 -0.16201,-0.0154 -0.42306,-0.0459 -0.50976,0.13086 -0.24232,0.49613 0.29029,0.58578 0.63086,0.58593 0.79053,3.2e-4 1.60146,-0.13359 2.36328,-0.35742 1.88772,-0.55456 3.54604,-1.73107 4.71875,-3.2793 0.53484,-0.70614 1.06845,-1.37834 1.16015,-2.30273 z m -35.900386,-1.42773 c -0.04681,-0.007 -0.0943,-0.004 -0.140625,0.0137 -0.320387,0.1249 -0.174284,0.73237 0.002,0.90625 0.280068,0.27625 1.597831,0.82018 1.96875,0.625 0.269566,-0.14186 0.195187,-0.52458 -0.0039,-0.68946 -0.369507,-0.3058 -1.017929,-0.38263 -1.441406,-0.65234 -0.10764,-0.0692 -0.244333,-0.18142 -0.384766,-0.20312 z m -0.140625,-1.49219 c -0.318372,0.0849 -0.01634,0.54629 0.105469,0.65625 0.408422,0.36967 1.690922,1.31253 2.279297,1.00586 0.2952,-0.15373 -0.08029,-0.51248 -0.224609,-0.61914 -0.466863,-0.34561 -1.071317,-0.49757 -1.574219,-0.79102 -0.150799,-0.0888 -0.397098,-0.30205 -0.585938,-0.25195 z m 30.404301,-0.0273 c -0.35955,0.0279 -1.00256,0.53422 -1.25196,0.79102 -0.2232,0.22989 -0.0779,0.49657 0.22266,0.51367 0.42,0.0126 0.90329,-0.32823 1.12891,-0.66015 0.14139,-0.2079 0.33903,-0.67884 -0.0996,-0.64454 z m -1.27539,-0.70507 c -0.49711,-0.0519 -0.81049,0.60972 -0.17774,0.66992 0.45608,0.0438 0.66067,-0.61982 0.17774,-0.66992 z m 3.0957,-0.30274 c -0.58525,0.1347 -0.48152,1.23385 -0.70899,1.65235 -0.29544,0.54388 -0.72553,1.17387 -1.23242,1.5371 -0.34934,0.25013 -1.02632,0.37068 -1.26953,0.73438 -0.21916,0.32762 0.1446,0.52932 0.42188,0.51172 1.1757,-0.0459 1.95073,-1.22968 2.46875,-2.11719 0.16055,-0.27504 0.40107,-0.48579 0.51757,-0.78711 0.10029,-0.2596 0.48045,-1.68752 -0.19726,-1.53125 z M 76.658203,779.3731 c -0.04511,-0.003 -0.08551,0.003 -0.121094,0.0176 -0.211918,0.0876 -0.08798,0.36829 0.01563,0.49024 0.171164,0.20002 0.755725,0.63662 1.03711,0.52148 0.16971,-0.0699 0.138858,-0.29338 0.04297,-0.41015 -0.148288,-0.18023 -0.658829,-0.59614 -0.974609,-0.61914 z m 33.927737,-1.00782 c -0.32286,0.0174 -0.25646,0.58639 -0.28516,0.80274 -0.11351,0.8648 -0.25246,1.68385 -0.625,2.48633 -0.60539,1.30414 -1.84272,3.03788 -3.1582,3.69726 -0.37272,0.18726 -0.91803,0.31818 -1.33399,0.30078 -0.2052,-3.7e-4 -0.57691,-0.15466 -0.75,0 -0.29679,0.26456 0.12265,0.71552 0.38672,0.76172 0.61286,0.10913 1.25307,-0.11602 1.81836,-0.33984 1.83685,-0.72771 3.29532,-2.76652 3.89453,-4.59375 0.24965,-0.76141 0.46675,-1.55763 0.46875,-2.36524 2.8e-4,-0.27847 -0.004,-0.76448 -0.41601,-0.74218 v -0.008 z m 1.68945,-1.55273 c -0.2123,0.67451 -0.18693,1.37059 -0.33398,2.06055 -0.52791,2.4751 -1.37115,5.70384 -3.72657,7.0664 -0.8851,0.51215 -1.64217,1.11886 -2.66601,1.3418 -0.38104,0.0842 -0.71969,-10e-4 -1.0918,0.0312 -0.24303,0.0215 -0.39623,0.23118 -0.33203,0.4707 0.13872,0.51811 0.80244,0.30274 1.18164,0.30274 0.88437,-0.0148 1.50006,-0.39602 2.24219,-0.80078 0.35958,-0.19623 0.77866,-0.32338 1.08398,-0.60352 2.19156,-2.01126 3.44374,-4.24385 3.83399,-7.20117 0.1214,-0.91948 0.3372,-1.74808 0.0508,-2.66602 v -0.002 h -0.24219 z M 76,776.77148 c -0.04259,-0.005 -0.08499,2.4e-4 -0.128906,0.0195 -0.457733,0.20208 0.109728,0.97094 0.257812,1.17382 0.588669,0.80642 1.453641,1.26762 2.207032,1.88868 0.230004,0.18966 0.68062,0.63342 1.011718,0.41406 0.382796,-0.25378 -0.165564,-0.63769 -0.345703,-0.78711 -0.796491,-0.65772 -1.621403,-1.1173 -2.294922,-1.94141 C 76.558439,777.35715 76.298078,776.80348 76,776.77148 Z m 0.05078,-1.97265 c -0.419925,0.12474 0.04573,1.13621 0.144531,1.34961 0.381698,0.82478 1.521206,1.63584 2.267579,2.1289 0.234003,0.1546 0.63767,0.52324 0.945312,0.37891 0.408966,-0.19189 -0.122973,-0.65021 -0.285156,-0.77734 -0.817757,-0.64326 -1.737421,-1.28229 -2.394531,-2.09571 -0.154784,-0.19157 -0.37482,-1.07357 -0.677735,-0.98437 z m 35.74219,-0.86328 c -0.36602,0.0769 -0.76056,1.27842 -0.95508,1.60547 -0.5256,0.88393 -1.60489,1.92445 -2.62305,2.20898 -1.75656,0.49067 -3.55454,0.11501 -4.81054,-1.22852 -0.44022,-0.47083 -0.69127,-0.95179 -1.07813,-1.46289 -0.12081,-0.15888 -0.34226,-0.39845 -0.5625,-0.24218 -0.22544,0.16083 -0.15379,0.57677 -0.0586,0.78515 0.26551,0.58257 0.83473,1.36553 1.29492,1.8086 1.37632,1.3262 2.78167,1.52479 4.60938,1.2832 0.36633,-0.0482 0.73262,-1.4e-4 1.08984,-0.11524 1.41559,-0.45593 2.35569,-1.65787 3.05078,-2.91601 0.23447,-0.42432 0.42524,-0.77045 0.40234,-1.27149 -0.01,-0.21505 -0.0747,-0.51477 -0.35937,-0.45507 z m -35.015627,-0.4336 c -0.03678,-10e-4 -0.07685,0.005 -0.119141,0.0215 -0.332517,0.12594 0.0032,0.84532 0.08398,1.04883 0.28618,0.72207 0.985765,1.49373 1.59375,1.96289 0.169418,0.13079 0.527866,0.49421 0.767578,0.38086 0.293566,-0.13852 -0.111864,-0.58051 -0.228516,-0.69727 -0.666012,-0.66202 -1.158651,-1.30277 -1.611328,-2.13086 -0.100222,-0.1835 -0.228857,-0.57694 -0.486328,-0.58594 z M 102.875,772.16406 c -0.12052,-0.0115 -0.24095,-0.01 -0.35742,0.008 -0.24992,0.0376 -0.56477,0.34291 -0.36133,0.60546 0.17941,0.23155 0.87482,0.30274 1.15039,0.44532 0.69254,0.3566 1.04146,0.79948 1.42383,1.45703 0.0985,0.17603 0.32065,0.22758 0.50586,0.17578 0.48406,-0.13589 -0.033,-1.03725 -0.18555,-1.25391 -0.42824,-0.60817 -1.33212,-1.3545 -2.17578,-1.4375 z m -25.441406,-0.082 c -0.0517,-9e-4 -0.108342,0.0122 -0.169922,0.041 -0.360004,0.16871 0.123165,1.24106 0.253906,1.47851 0.623696,1.13246 1.476226,2.18102 2.455078,3.03125 0.239712,0.20822 0.771652,0.79722 1.132813,0.62891 0.476503,-0.22249 -0.244261,-0.9954 -0.41211,-1.17578 -0.953956,-1.0258 -2.025433,-1.78799 -2.644531,-3.08985 -0.118106,-0.24834 -0.253341,-0.90806 -0.615234,-0.91406 z m 27.517576,-0.31641 c -0.10109,-0.003 -0.20007,0.0133 -0.29297,0.0547 -0.18278,0.0814 -0.10997,0.29223 0,0.40039 0.66958,0.65645 1.23737,0.99598 1.52344,1.92383 0.0475,0.15469 0.1718,0.25539 0.33398,0.17969 0.35691,-0.16719 0.26061,-0.72987 0.16211,-1.02539 -0.16907,-0.50719 -1.01893,-1.51181 -1.72656,-1.53321 z m 5.50586,-0.64843 c -0.34481,1.85729 -0.25929,3.6927 -2.18164,4.73242 -0.68893,0.37262 -1.54976,0.38629 -2.30273,0.24023 -0.34987,-0.0675 -0.8221,-0.3483 -1.02149,0.125 -0.33683,0.7999 1.30322,0.96289 1.8086,0.96289 1.39629,0.0165 2.74594,-0.82151 3.53711,-1.93945 0.64915,-0.91754 0.85389,-1.99416 0.72265,-3.0918 -0.0506,-0.42242 -0.0408,-0.94169 -0.5625,-1.02929 z m -32.304686,-1.69336 c -0.06809,-0.0121 -0.145792,-0.003 -0.232422,0.0332 -0.403696,0.16871 -0.214666,1.22244 -0.103516,1.53906 0.427216,1.21704 1.048404,2.53798 1.97461,3.45313 0.199085,0.19691 0.81239,0.82852 1.132812,0.66016 0.412388,-0.21699 0.02477,-0.81929 -0.166016,-1.02344 -1.160381,-1.24205 -2.011694,-2.4741 -2.25,-4.18164 -0.03099,-0.22266 -0.151207,-0.44427 -0.355468,-0.48047 z m 0.857422,-0.85742 c -0.244113,0.037 -0.194377,0.44336 0.05078,0.44336 0.291814,-0.008 0.217226,-0.48476 -0.05078,-0.44336 z m 5.378906,-0.61914 c -0.147215,-0.008 -0.305378,0.004 -0.476563,0.041 -0.71212,0.15389 -1.363212,0.88067 -1.783203,1.43164 -0.145682,0.191 -0.491566,0.73469 -0.03125,0.80469 0.879641,0.13661 1.273675,-1.74099 2.359375,-1.29883 0.757433,0.30842 0.140728,1.19987 0.08008,1.70703 -0.02844,0.23793 0.122186,0.56919 0.40625,0.52149 0.461819,-0.0795 0.483635,-0.71669 0.59375,-1.06836 0.316166,-1.00911 -0.117934,-2.08397 -1.148437,-2.13867 z m -0.416016,-1.65821 c -0.705584,0.0312 -1.240434,0.60212 -1.724609,1.04102 -0.290548,0.26341 -0.645792,0.42367 -0.919922,0.7207 -0.510616,0.55352 -0.917976,1.35125 -1.220703,2.03516 -0.312121,0.7051 0.07362,1.97315 1.015625,1.90625 0.67061,-0.0472 1.511701,-0.27624 2.060547,-0.67188 0.249391,-0.17987 0.666949,-0.70308 0.175781,-0.89258 -0.682856,-0.26333 -1.843339,1.44699 -2.458984,0.37891 -0.205033,-0.35564 0.05362,-0.74777 0.169921,-1.08398 0.492868,-1.42605 1.884364,-1.84528 2.951172,-2.64844 0.272997,-0.20551 0.486869,-0.80906 -0.04883,-0.78516 z m 9.697266,-0.83008 c -0.321984,0 -0.251184,0.60071 -0.277344,0.8086 -0.105704,0.84266 0.20543,1.81224 0.607422,2.54687 0.884272,1.61592 2.074192,2.77163 3.851562,3.32227 0.501639,0.15555 1.062843,0.12998 1.576172,0.25195 0.39844,-0.30155 1.259376,-0.23553 1.757816,-0.4082 1.84864,-0.64113 3.41574,-1.6654 5.39257,-0.58203 0.52913,0.29019 0.89082,1.02724 1.17969,1.53711 0.12168,0.21475 0.16114,0.54016 0.40235,0.66211 0.32288,0.16321 0.96799,-0.16054 1.32812,-0.17774 -0.0361,-0.77401 -0.7019,-0.29931 -1.0039,-0.84961 -0.31127,-0.56706 -0.38653,-1.25835 -0.9375,-1.67773 -1.01462,-0.77201 -2.93301,-1.23435 -4.17969,-0.82031 -1.96084,0.65125 -4.103307,2.24816 -6.181643,0.95898 -1.37727,-0.85437 -2.417519,-2.24935 -2.880859,-3.79297 -0.112545,-0.37501 -0.0088,-1.7793 -0.634766,-1.7793 z m -9.667969,-0.62695 c -0.193291,0.0163 -0.3861,0.0627 -0.574219,0.11328 -1.384942,0.36975 -2.175539,1.27761 -3.091796,2.29297 -0.422553,0.46812 -0.939175,1.21273 -0.242188,1.63672 0.50019,-0.66903 0.90034,-1.3597 1.515625,-1.93555 0.536535,-0.50219 1.165632,-1.01561 1.878906,-1.24804 0.372915,-0.12147 1.02312,0.0545 1.306641,-0.23633 0.222803,-0.22852 0.02915,-0.47455 -0.216797,-0.56055 -0.189938,-0.0655 -0.382881,-0.0788 -0.576172,-0.0625 z m 2.339844,-0.31055 c -0.21189,0.0228 -0.1855,0.32518 -0.1875,0.47461 -0.0053,0.46558 -0.104391,0.92673 -0.05078,1.39453 0.01902,0.16547 0.07249,0.42189 0.292968,0.39649 0.390554,-0.0448 0.188541,-1.52809 0.181641,-1.85156 -0.0029,-0.15087 -0.01016,-0.43797 -0.236329,-0.41407 z m 16.410153,-0.20117 c -0.22039,-0.014 -0.42381,-0.006 -0.5957,0.0312 v -0.002 c -0.3741,0.0801 -0.52168,0.70872 -0.16992,0.91406 0.37065,0.21689 0.8112,0.0244 1.19922,0.0234 0.55051,-0.002 1.29252,0.55082 1.81054,0.33984 0.65309,-0.26591 0.0304,-0.72032 -0.29687,-0.8457 -0.48356,-0.18593 -1.2861,-0.41904 -1.94727,-0.46094 z M 84.880859,763.5098 c -1.296309,0.27417 -2.647365,0.24995 -3.818359,1 -0.383211,0.2455 -0.714759,0.64124 -1.023438,0.97265 -0.423269,0.45443 -0.831363,1.01624 -1.107421,1.57422 -0.08611,0.17405 -0.212716,0.58643 0.08008,0.64453 0.259879,0.0512 0.405663,-0.22831 0.53125,-0.40234 0.32285,-0.44719 0.646382,-0.92269 1.044922,-1.30664 0.739225,-0.71227 1.935181,-1.49937 2.960937,-1.70313 0.558859,-0.11095 1.728143,0.15608 2.158203,-0.24609 0.439591,-0.41057 -0.587374,-0.5834 -0.826172,-0.5332 z m 13.521485,-0.40625 c -0.350692,0.0845 -0.435682,1.0532 -0.425782,1.34765 0.03511,1.08229 0.886387,2.14834 2.056638,1.7793 0.27056,-0.0854 0.55014,-0.37871 0.44532,-0.68555 -0.0768,-0.22517 -0.3722,-0.36651 -0.521489,-0.54687 -0.33645,-0.40629 -0.566248,-0.83757 -0.855469,-1.27344 -0.134409,-0.20272 -0.395585,-0.69519 -0.699218,-0.62109 z m -10.251953,-0.47657 c -0.446729,0 -0.577121,0.90922 -0.619141,1.22071 -0.145676,1.07839 -0.115506,2.01527 -0.103516,3.09179 0.0056,0.46765 -0.06041,1.13214 0.605469,1.08594 0.453103,-0.0318 0.3027,-0.53692 0.224609,-0.84375 -0.308216,-1.20827 -0.352734,-2.51328 0.06836,-3.69726 0.07054,-0.19845 0.187438,-0.85743 -0.175781,-0.85743 z m 4.669921,-0.0176 c -0.447108,0.10839 -0.594223,0.5463 -0.689453,0.93359 -0.230617,0.93869 -0.241687,2.12603 -0.148437,3.08984 0.02217,0.22954 0.07975,1.37049 0.466797,1.25196 0.354161,-0.10841 0.25,-0.8598 0.25,-1.13086 0,-0.94629 -0.201257,-1.90535 0.01172,-2.84766 0.07109,-0.31479 0.380558,-0.48324 0.455078,-0.78906 0.05872,-0.24124 -0.03382,-0.58351 -0.345705,-0.50781 z m 6.607422,-0.98633 c -1.376662,0.15752 -0.204947,1.47116 0.289063,2.07812 0.23294,0.28625 0.295053,0.6063 0.740233,0.5586 0.68288,-0.0726 0.74007,-0.70141 0.61328,-1.25977 -0.17056,-0.75111 -0.80892,-1.47175 -1.642576,-1.37695 z m -8.720703,-0.31055 c -0.06431,-0.003 -0.12963,0.004 -0.1875,0.0215 -0.704549,0.2072 -1.007564,0.9122 -1.169922,1.54493 -0.352847,1.37473 0.249931,2.67018 0.05078,4.06054 -0.07157,0.49959 -0.340212,0.95681 -0.388672,1.45313 -0.02024,0.20683 0.136192,0.3682 0.353515,0.3164 0.504395,-0.12097 0.570301,-1.00495 0.619141,-1.40625 0.0732,-0.60165 0.252396,-1.20502 0.228516,-1.81835 -0.02666,-0.68169 -0.227691,-1.51198 -0.0918,-2.18165 0.06606,-0.3254 0.154951,-0.69927 0.351562,-0.9707 0.135513,-0.18708 0.52694,-0.45287 0.56836,-0.67383 0.04358,-0.23001 -0.141066,-0.3357 -0.333985,-0.3457 z m 2.375,-0.0469 c -1.051547,0.0335 -1.845896,0.86964 -2.146484,1.91602 -0.356835,1.24196 -0.04346,2.61066 -0.185547,3.87891 -0.06268,0.56005 -0.187838,1.15347 -0.335938,1.69726 -0.07452,0.27364 -0.179585,0.63297 0.04102,0.86524 0.365398,0.38504 0.710354,-0.15801 0.777344,-0.50196 0.181889,-0.9356 0.181369,-1.90333 0.193359,-2.84961 0.0115,-0.91789 -0.07254,-1.88446 0.136719,-2.7871 0.126981,-0.5474 0.355747,-1.0609 0.833984,-1.38868 0.408008,-0.27972 1.039483,-0.23858 1.152344,-0.79297 -0.159965,-0.0301 -0.316576,-0.0421 -0.466797,-0.0371 z m 5.19336,-0.78515 c -0.726556,0.0942 -1.297221,1.05158 -1.542969,1.66992 -0.649114,1.63309 -0.65576,3.66473 0.58789,5.06641 0.804021,0.90606 1.65446,0.94776 2.773438,0.88086 1.88008,-0.11096 3.59758,-1.17098 5.51563,-1.07618 0.6375,0.0316 1.48125,0.34879 1.99414,0.73829 0.15713,0.11921 0.44394,0.65755 0.69726,0.45898 0.28239,-0.22128 -0.12494,-0.68709 -0.26758,-0.85547 -0.54937,-0.6468 -1.12245,-0.91387 -1.93945,-1.08398 -0.98832,-0.2058 -2.23236,-0.11816 -3.21094,0.14453 -1.31419,0.35287 -2.887639,1.27926 -4.244138,0.55664 -0.307022,-0.16353 -0.597495,-0.47653 -0.839844,-0.72461 -1.04201,-1.06668 -0.549185,-3.40925 0.152344,-4.52734 0.185041,-0.2948 0.587354,-0.33515 0.746094,-0.61914 0.159514,-0.28553 -0.10544,-0.66836 -0.421875,-0.62696 v -0.002 z m -1.697266,-0.10352 c -0.847948,1.6e-4 -1.344217,1.38634 -1.576172,2.01758 -0.837283,2.27922 -0.328804,4.94927 1.353516,6.72461 0.388658,0.41029 0.774268,0.7253 1.314453,0.87305 0.902303,0.24707 1.498593,0.5157 2.474608,0.26367 1.80366,-0.46537 3.60988,-1.75385 5.52539,-1.25391 0.91791,0.23933 2.14966,0.66156 2.83985,1.34375 0.18969,0.18762 0.48978,1.07552 0.83789,0.97266 0.37823,-0.11201 -0.0233,-0.90367 -0.15039,-1.07031 -0.67273,-0.87946 -1.34995,-1.32758 -2.37696,-1.76758 -0.81016,-0.34604 -1.8889,-0.63539 -2.77734,-0.43164 -2.0862,0.47829 -4.815681,2.42614 -6.767579,0.42969 -1.748214,-1.78808 -2.225144,-4.42261 -1.050782,-6.63086 0.119213,-0.22406 1.064437,-1.47087 0.353516,-1.47071 z"
           inkscape:connector-curvature="0" />
        <path
           style="display:inline;fill:#000000;stroke:none;stroke-width:0.35277799"
           d="m 97.287109,759.56836 c -0.803728,-0.004 -1.597069,0.20068 -2.345703,0.51758 -0.354187,0.15119 -0.655841,0.47618 -1.029297,0.57617 -0.42831,0.1151 -1.075015,-0.092 -1.515625,-0.13477 -0.813029,-0.0773 -1.807383,-0.0355 -2.605468,0.13282 -0.891222,0.1895 -2.197755,0.64872 -2.902344,1.23437 -0.36698,0.30496 -0.343641,0.81517 -0.794922,1.05859 -0.535205,0.28861 -1.459375,0.0469 -2.060547,0.0469 -1.176611,0 -2.176876,0.17719 -3.212891,0.77539 -0.973534,0.56244 -1.998008,1.58077 -2.43164,2.61914 -0.18402,0.44049 -0.143101,0.98388 -0.363281,1.39258 -0.3188,0.59152 -0.86738,1.06322 -1.222657,1.63672 -1.048272,1.6917 -2.141852,4.05341 -2.279296,6.06055 -0.08671,1.26683 0.68494,2.31621 0.660156,3.57617 -0.0099,0.48778 -0.156439,0.96702 -0.177735,1.45507 -0.03756,0.86073 0.08558,1.74956 -0.0098,2.60547 -0.05718,0.51384 -0.526812,0.8204 -0.470703,1.39453 0.05034,0.51524 0.377666,1.15432 0.576171,1.63672 0.203182,0.49394 0.375455,1.13141 0.671876,1.57032 0.90947,1.34694 2.100126,2.26723 3.349609,3.24218 0.236196,0.0347 0.45701,0.24546 0.658203,0.49024 0.633612,2.19161 1.548366,4.35762 2.466797,6.05664 l 0.878906,-0.47656 c -1.286581,-2.38006 -2.591181,-5.79671 -3.017578,-8.71485 -0.08636,-1.46829 -0.0506,-2.97173 0.117187,-4.41015 0.07493,-0.64336 0.299158,-1.2988 0.337891,-1.93946 0.03488,-0.57708 -0.572196,-1.07604 -0.423828,-1.69726 0.291213,-1.21976 1.576664,-1.83617 2.189453,-2.84961 0.294984,-0.48793 0.459408,-1.05824 0.691406,-1.57617 0.121457,-0.27129 0.358366,-0.55198 0.40625,-0.84766 0.05153,-0.31853 -0.336326,-0.53392 -0.208984,-0.8457 0.162346,-0.3974 0.74194,-0.60536 1.050781,-0.8711 0.699841,-0.6025 1.190789,-1.71378 1.958985,-2.17968 0.282975,-0.17182 0.597641,0.35957 0.835937,0.47656 0.779593,0.38223 1.664541,1.06764 2.605469,0.97851 1.101778,-0.10496 2.155119,-0.85245 2.894531,-1.63671 0.270719,-0.28707 0.566661,-0.9934 0.984375,-1.0879 0.243461,-0.055 0.328035,0.21774 0.427734,0.37696 0.214109,0.34172 0.552249,0.64838 0.839844,0.92773 0.76909,0.74734 1.51878,1.66885 2.671875,1.84375 0.653036,0.0996 1.403496,9.4e-4 2.060547,-0.0488 0.26479,-0.0223 0.604337,-0.2052 0.824227,0.0332 0.23813,0.25753 -0.14605,0.76671 -0.16993,1.06445 -0.0348,0.43619 0.0762,0.53427 0.16211,0.72517 l 0.45508,0.42917 c 0.0415,0.31214 0.2142,0.78647 0.54688,0.84765 0.28952,1.06325 1.43953,2.18625 2.22265,2.92188 0.35907,0.33708 1.15255,0.53292 1.14454,1.08008 -0.009,0.73958 -0.29523,1.94536 -0.61524,2.60351 -0.16097,0.33123 -0.52928,0.47611 -0.62305,0.84961 -0.52823,2.10367 -0.22311,4.36699 -0.73632,6.48438 -0.17944,0.74082 -0.22854,0.73151 -0.50782,1.44531 -0.008,0.0205 -0.36035,0.85533 -0.36914,0.87891 -0.73303,1.48384 -1.6379,2.96439 -3.187503,5.17578 l 0.820313,0.57422 c 1.3807,-1.97036 2.27563,-3.3956 2.99219,-4.76368 0.53556,-0.0735 1.09752,0.081 1.64649,0.084 0.73548,0 1.45112,0.13555 2.18164,-0.0566 1.74311,-0.45715 3.65745,-2.22588 4.33984,-3.88477 0.24722,-0.60097 0.0913,-1.38452 0.38672,-1.93945 0.22232,-0.41797 0.63885,-0.71573 0.91797,-1.0918 0.49916,-0.67295 0.95684,-1.65607 1.12109,-2.48242 0.15046,-0.75731 0.0956,-1.59507 0.14844,-2.36523 0.15445,-2.24199 0.15354,-4.66736 -0.47657,-6.84766 -0.11732,-0.4058 -0.44097,-0.66529 -0.58203,-1.03516 -0.22336,-0.5855 -0.21126,-1.28332 -0.50196,-1.875 -0.2342,-0.47675 -0.60271,-0.8754 -0.86522,-1.33203 -0.85398,-1.4864 -1.60976,-3.00067 -2.91211,-4.17578 -0.86443,-0.77998 -1.99421,-1.62303 -3.09181,-2.04102 -0.48742,-0.18553 -1.00884,-0.42578 -1.51367,-0.54687 -0.39966,-0.0964 -0.84222,-0.11449 -1.20703,-0.33594 -0.44837,-0.27281 -0.67041,-1.02568 -0.95703,-1.44726 -0.64534,-0.9492 -1.898556,-2.04865 -3.048825,-2.26563 -0.268987,-0.0507 -0.538731,-0.0749 -0.806641,-0.0762 z m -0.708984,0.80859 c 0.710921,-1.6e-4 -0.234303,1.24665 -0.353516,1.47071 -1.174362,2.20825 -0.697432,4.84278 1.050782,6.63086 1.951898,1.99645 4.681379,0.0486 6.767579,-0.42969 0.88844,-0.20375 1.96718,0.0856 2.77734,0.43164 1.02701,0.44 1.70423,0.88812 2.37696,1.76758 0.12713,0.16664 0.52862,0.9583 0.15039,1.07031 -0.34811,0.10286 -0.6482,-0.78504 -0.83789,-0.97266 -0.69019,-0.68219 -1.92194,-1.10442 -2.83985,-1.34375 -1.91551,-0.49994 -3.72173,0.78854 -5.52539,1.25391 -0.976016,0.25203 -1.572305,-0.0166 -2.474608,-0.26367 -0.540185,-0.14775 -0.925795,-0.46276 -1.314453,-0.87305 -1.68232,-1.77534 -2.190799,-4.44539 -1.353516,-6.72461 0.231955,-0.63124 0.728224,-2.01742 1.576172,-2.01758 z m 1.697266,0.10352 v 0.002 c 0.316435,-0.0414 0.581389,0.34144 0.421875,0.62696 -0.15874,0.28399 -0.561053,0.32434 -0.746094,0.61914 -0.701529,1.11809 -1.194354,3.46066 -0.152344,4.52734 0.242349,0.24808 0.532822,0.56108 0.839844,0.72461 1.356499,0.72262 2.929948,-0.20377 4.244138,-0.55664 0.97858,-0.26269 2.22262,-0.35033 3.21094,-0.14453 0.817,0.17011 1.39008,0.43718 1.93945,1.08398 0.14264,0.16838 0.54997,0.63419 0.26758,0.85547 -0.25332,0.19857 -0.54013,-0.33977 -0.69726,-0.45898 -0.51289,-0.3895 -1.35664,-0.70667 -1.99414,-0.73829 -1.91805,-0.0948 -3.63555,0.96522 -5.51563,1.07618 -1.118978,0.0669 -1.969417,0.0252 -2.773438,-0.88086 -1.243651,-1.40168 -1.237004,-3.43332 -0.58789,-5.06641 0.245748,-0.61834 0.816413,-1.57577 1.542969,-1.66992 z m -5.19336,0.78515 c 0.150221,-0.005 0.306832,0.007 0.466797,0.0371 -0.112861,0.55439 -0.744336,0.51325 -1.152344,0.79297 -0.478237,0.32778 -0.707003,0.84128 -0.833984,1.38868 -0.209262,0.90264 -0.125214,1.86921 -0.136719,2.7871 -0.01199,0.94628 -0.01147,1.91401 -0.193359,2.84961 -0.06699,0.34395 -0.411946,0.887 -0.777344,0.50196 -0.220601,-0.23227 -0.115538,-0.5916 -0.04102,-0.86524 0.148099,-0.54379 0.273259,-1.13721 0.335938,-1.69726 0.142082,-1.26825 -0.171288,-2.63695 0.185547,-3.87891 0.300588,-1.04638 1.094937,-1.88252 2.146488,-1.91601 z m -2.375,0.0469 c 0.192919,0.01 0.377569,0.11569 0.333985,0.3457 -0.04142,0.22096 -0.432847,0.48675 -0.56836,0.67383 -0.196611,0.27143 -0.285507,0.6453 -0.351562,0.9707 -0.135894,0.66967 0.06514,1.49996 0.0918,2.18165 0.02388,0.61333 -0.155313,1.2167 -0.228516,1.81835 -0.04884,0.4013 -0.114746,1.28528 -0.619141,1.40625 -0.217323,0.0518 -0.373759,-0.10957 -0.353515,-0.3164 0.04846,-0.49632 0.317101,-0.95354 0.388672,-1.45313 0.199149,-1.39036 -0.403627,-2.68581 -0.05078,-4.06054 0.162358,-0.63273 0.465373,-1.33773 1.169922,-1.54493 0.05787,-0.0171 0.123194,-0.0247 0.1875,-0.0215 z m 8.720703,0.31055 c 0.833656,-0.0948 1.472016,0.62584 1.642576,1.37695 0.12679,0.55836 0.0696,1.18712 -0.61328,1.25977 -0.44518,0.0477 -0.507293,-0.27235 -0.740233,-0.5586 -0.49401,-0.60696 -1.665725,-1.9206 -0.289063,-2.07812 z m -6.607422,0.98633 c 0.311881,-0.0757 0.404428,0.26657 0.345704,0.50781 -0.07452,0.30582 -0.38399,0.47427 -0.455078,0.78906 -0.212976,0.94231 -0.01172,1.90137 -0.01172,2.84766 0,0.27106 0.104161,1.02245 -0.25,1.13086 -0.387044,0.11853 -0.444627,-1.02242 -0.466797,-1.25196 -0.09325,-0.96381 -0.08218,-2.15115 0.148437,-3.08984 0.09523,-0.38729 0.242344,-0.82519 0.689454,-0.93359 z m -4.669921,0.0176 c 0.363219,0 0.246326,0.65898 0.175781,0.85743 -0.421094,1.18399 -0.376577,2.48899 -0.06836,3.69726 0.07809,0.30683 0.228494,0.81197 -0.224609,0.84375 -0.665881,0.0462 -0.59988,-0.61829 -0.605469,-1.08594 -0.01199,-1.07652 -0.04216,-2.0134 0.103516,-3.09179 0.04202,-0.31149 0.172412,-1.22071 0.619141,-1.22071 z m 10.251953,0.47657 c 0.303633,-0.0741 0.564809,0.41837 0.699218,0.62109 0.289221,0.43587 0.519019,0.86715 0.855469,1.27344 0.149289,0.18036 0.444649,0.3217 0.521489,0.54687 0.10482,0.30684 -0.17476,0.60016 -0.44532,0.68555 -1.170254,0.36904 -2.021534,-0.69701 -2.056638,-1.7793 -0.0099,-0.29445 0.07509,-1.26314 0.425782,-1.34765 z m -13.521485,0.40625 c 0.238798,-0.0502 1.265763,0.12263 0.826172,0.5332 -0.43006,0.40217 -1.599344,0.13514 -2.158203,0.24609 -1.025756,0.20376 -2.221712,0.99086 -2.960937,1.70313 -0.39854,0.38395 -0.722072,0.85945 -1.044922,1.30664 -0.125587,0.17403 -0.271371,0.45356 -0.53125,0.40234 -0.292794,-0.0581 -0.166188,-0.47048 -0.08008,-0.64453 0.276058,-0.55798 0.684152,-1.11979 1.107421,-1.57422 0.308679,-0.33141 0.640227,-0.72715 1.023438,-0.97265 1.170994,-0.75005 2.52205,-0.72583 3.818361,-1 z m 17.871091,0.81054 c 0.66117,0.0419 1.46371,0.27501 1.94727,0.46094 0.32727,0.12538 0.94996,0.57979 0.29687,0.8457 -0.51802,0.21098 -1.26003,-0.34135 -1.81054,-0.33984 -0.38802,9.8e-4 -0.82857,0.19349 -1.19922,-0.0234 -0.35176,-0.20534 -0.20418,-0.83398 0.16992,-0.91406 v 0.002 c 0.17189,-0.0369 0.37531,-0.0452 0.5957,-0.0312 z m -16.410153,0.20117 c 0.226171,-0.0239 0.233474,0.2632 0.236328,0.41407 0.0069,0.32347 0.208913,1.80672 -0.181641,1.85156 -0.22048,0.0254 -0.273944,-0.23103 -0.292968,-0.39649 -0.05361,-0.4678 0.04543,-0.92895 0.05078,-1.39453 0.002,-0.14943 -0.02439,-0.45176 0.187501,-0.47461 z m -2.339844,0.31055 c 0.193291,-0.0163 0.386234,-0.003 0.576172,0.0625 0.245943,0.086 0.4396,0.33203 0.216797,0.56055 -0.283521,0.29082 -0.933726,0.11486 -1.306641,0.23633 -0.713274,0.23243 -1.342371,0.74585 -1.878906,1.24804 -0.615285,0.57585 -1.015435,1.26652 -1.515625,1.93555 -0.696987,-0.42399 -0.180365,-1.1686 0.242188,-1.63672 0.916257,-1.01536 1.706854,-1.92322 3.091796,-2.29297 0.188119,-0.0506 0.380928,-0.097 0.574219,-0.11328 z m 9.667969,0.62695 c 0.62595,0 0.522221,1.40429 0.634766,1.7793 0.463341,1.54362 1.503589,2.9386 2.880859,3.79297 2.078336,1.28918 4.220803,-0.30773 6.181643,-0.95898 1.24668,-0.41404 3.16507,0.0483 4.17969,0.82031 0.55097,0.41938 0.62624,1.11067 0.9375,1.67773 0.302,0.5503 0.96783,0.0756 1.0039,0.84961 -0.36013,0.0172 -1.00524,0.34095 -1.32812,0.17774 -0.24121,-0.12195 -0.28067,-0.44736 -0.40235,-0.66211 -0.28887,-0.50987 -0.65057,-1.24692 -1.17969,-1.53711 -1.97683,-1.08337 -3.54393,-0.0591 -5.39257,0.58203 -0.49844,0.17267 -1.359376,0.10665 -1.757816,0.4082 -0.513329,-0.12197 -1.074533,-0.0964 -1.576172,-0.25195 -1.77737,-0.55064 -2.96729,-1.70635 -3.851562,-3.32227 -0.401992,-0.73463 -0.713126,-1.70421 -0.607422,-2.54687 0.02616,-0.20789 -0.04464,-0.8086 0.277344,-0.8086 z m -9.697266,0.83008 c 0.535697,-0.0239 0.321827,0.57965 0.04883,0.78516 -1.066808,0.80316 -2.458304,1.22239 -2.951172,2.64844 -0.116303,0.33621 -0.374954,0.72834 -0.169921,1.08398 0.615645,1.06808 1.776128,-0.64224 2.458984,-0.37891 0.491168,0.1895 0.07361,0.71271 -0.175781,0.89258 -0.548846,0.39564 -1.389937,0.62465 -2.060547,0.67188 -0.942005,0.0669 -1.327746,-1.20115 -1.015625,-1.90625 0.302727,-0.68391 0.710087,-1.48164 1.220703,-2.03516 0.27413,-0.29703 0.629374,-0.45729 0.919922,-0.7207 0.484175,-0.4389 1.019025,-1.00987 1.724607,-1.04102 z m 0.416016,1.65821 c 1.030503,0.0547 1.464603,1.12956 1.148437,2.13867 -0.110115,0.35167 -0.131931,0.98883 -0.59375,1.06836 -0.284064,0.0477 -0.434685,-0.28356 -0.40625,-0.52149 0.06065,-0.50716 0.677353,-1.39861 -0.08008,-1.70703 -1.0857,-0.44216 -1.479734,1.43544 -2.359375,1.29883 -0.460316,-0.07 -0.114432,-0.61369 0.03125,-0.80469 0.419991,-0.55097 1.071083,-1.27775 1.783203,-1.43164 0.171185,-0.037 0.329348,-0.0488 0.476565,-0.041 z m -5.378906,0.61914 c 0.268007,-0.0414 0.342594,0.43498 0.05078,0.44336 -0.245158,0 -0.294893,-0.40639 -0.05078,-0.44336 z m -0.857422,0.85742 c 0.204261,0.0362 0.324477,0.25781 0.355468,0.48047 0.238306,1.70754 1.089618,2.93959 2.25,4.18164 0.190784,0.20415 0.578404,0.80645 0.166016,1.02344 -0.320422,0.16836 -0.933727,-0.46325 -1.132812,-0.66016 -0.926206,-0.91515 -1.547394,-2.23609 -1.97461,-3.45313 -0.11115,-0.31662 -0.30018,-1.37035 0.103516,-1.53906 0.08663,-0.0361 0.164335,-0.0453 0.232422,-0.0332 z m 32.304686,1.69336 c 0.52174,0.0876 0.51193,0.60687 0.5625,1.02929 0.13124,1.09764 -0.0735,2.17426 -0.72265,3.0918 -0.79117,1.11794 -2.14082,1.95595 -3.53711,1.93945 -0.50538,0 -2.14543,-0.16299 -1.8086,-0.96289 0.19939,-0.4733 0.67162,-0.19249 1.02149,-0.125 0.75297,0.14606 1.6138,0.13239 2.30273,-0.24023 1.92235,-1.03972 1.83683,-2.87513 2.18164,-4.73242 z m -5.50586,0.64843 c 0.70763,0.0214 1.55749,1.02602 1.72656,1.53321 0.0985,0.29552 0.19479,0.8582 -0.16211,1.02539 -0.16218,0.0757 -0.28646,-0.025 -0.33398,-0.17969 -0.28607,-0.92785 -0.85386,-1.26738 -1.52344,-1.92383 -0.10997,-0.10816 -0.18278,-0.31896 0,-0.40039 0.0929,-0.0414 0.19188,-0.0577 0.29297,-0.0547 z m -27.517576,0.31641 c 0.361893,0.006 0.497128,0.66572 0.615234,0.91406 0.619098,1.30186 1.690575,2.06405 2.644531,3.08985 0.167849,0.18038 0.888613,0.95329 0.41211,1.17578 -0.361161,0.16831 -0.893101,-0.42069 -1.132813,-0.62891 -0.978852,-0.85023 -1.831382,-1.89879 -2.455078,-3.03125 -0.130741,-0.23745 -0.61391,-1.3098 -0.253906,-1.47851 0.06158,-0.0288 0.118223,-0.0419 0.169922,-0.041 z m 25.441406,0.082 c 0.84366,0.083 1.74754,0.82933 2.17578,1.4375 0.15254,0.21666 0.66961,1.11802 0.18555,1.25391 -0.18521,0.0518 -0.40737,2.5e-4 -0.50586,-0.17578 -0.38237,-0.65755 -0.73129,-1.10043 -1.42383,-1.45703 -0.27557,-0.14258 -0.97098,-0.21377 -1.15039,-0.44532 -0.20344,-0.26255 0.11141,-0.56788 0.36133,-0.60546 0.11647,-0.0176 0.2369,-0.0195 0.35742,-0.008 z m -26.097656,1.33789 c 0.257471,0.009 0.386106,0.40244 0.486328,0.58594 0.452677,0.82809 0.945316,1.46884 1.611328,2.13086 0.116652,0.11676 0.522082,0.55875 0.228516,0.69727 -0.239712,0.11335 -0.59816,-0.25007 -0.767578,-0.38086 -0.607985,-0.46916 -1.30757,-1.24082 -1.59375,-1.96289 -0.08076,-0.20351 -0.416497,-0.92289 -0.08398,-1.04883 0.04229,-0.0161 0.08236,-0.0228 0.119136,-0.0215 z m 35.015626,0.4336 c 0.28462,-0.0597 0.34949,0.24001 0.35937,0.45507 0.0229,0.50104 -0.16787,0.84717 -0.40234,1.27149 -0.69509,1.25814 -1.63519,2.46008 -3.05078,2.91601 -0.35722,0.1151 -0.72351,0.067 -1.08984,0.11524 -1.82771,0.24159 -3.23306,0.043 -4.60938,-1.2832 -0.46019,-0.44307 -1.02941,-1.22603 -1.29492,-1.8086 -0.0952,-0.20838 -0.16684,-0.62432 0.0586,-0.78515 0.22024,-0.15627 0.44169,0.0833 0.5625,0.24218 0.38686,0.5111 0.63791,0.99206 1.07813,1.46289 1.256,1.34353 3.05398,1.71919 4.81054,1.22852 1.01816,-0.28453 2.09745,-1.32505 2.62305,-2.20898 0.19452,-0.32705 0.58906,-1.52853 0.95508,-1.60547 z m -35.742189,0.86328 c 0.302915,-0.0892 0.522951,0.7928 0.677735,0.98437 0.65711,0.81342 1.576774,1.45245 2.394531,2.09571 0.162183,0.12713 0.694122,0.58545 0.285156,0.77734 -0.307642,0.14433 -0.711309,-0.22431 -0.945312,-0.37891 -0.746373,-0.49306 -1.885882,-1.30412 -2.267579,-2.1289 -0.0988,-0.2134 -0.564456,-1.22487 -0.144531,-1.34961 z M 76,776.77148 c 0.298078,0.032 0.558439,0.58567 0.707031,0.76758 0.673519,0.82411 1.498431,1.28369 2.294922,1.94141 0.180139,0.14942 0.728499,0.53333 0.345703,0.78711 -0.331098,0.21936 -0.781714,-0.2244 -1.011718,-0.41406 -0.753391,-0.62106 -1.618363,-1.08226 -2.207032,-1.88868 -0.148084,-0.20288 -0.715545,-0.97174 -0.257812,-1.17382 0.04392,-0.0193 0.08632,-0.0241 0.128906,-0.0195 z m 36.27539,0.041 h 0.24219 v 0.002 c 0.28642,0.91794 0.0706,1.74654 -0.0508,2.66602 -0.39025,2.95732 -1.64243,5.18991 -3.83399,7.20117 -0.30532,0.28014 -0.7244,0.40729 -1.08398,0.60352 -0.74213,0.40476 -1.35782,0.78601 -2.24219,0.80078 -0.3792,0 -1.04292,0.21537 -1.18164,-0.30274 -0.0642,-0.23952 0.089,-0.44918 0.33203,-0.4707 0.37211,-0.0326 0.71076,0.053 1.0918,-0.0312 1.02384,-0.22294 1.78091,-0.82965 2.66601,-1.3418 2.35542,-1.36256 3.19866,-4.5913 3.72657,-7.0664 0.14705,-0.68996 0.12168,-1.38604 0.33398,-2.06055 z m -1.68945,1.55273 v 0.008 c 0.41244,-0.0223 0.41629,0.46371 0.41601,0.74218 -0.002,0.80761 -0.2191,1.60383 -0.46875,2.36524 -0.59921,1.82723 -2.05768,3.86604 -3.89453,4.59375 -0.56529,0.22382 -1.2055,0.44897 -1.81836,0.33984 -0.26407,-0.0462 -0.68351,-0.49716 -0.38672,-0.76172 0.17309,-0.15466 0.5448,-3.7e-4 0.75,0 0.41596,0.0174 0.96127,-0.11352 1.33399,-0.30078 1.31548,-0.65938 2.55281,-2.39312 3.1582,-3.69726 0.37254,-0.80248 0.51149,-1.62153 0.625,-2.48633 0.0287,-0.21635 -0.0377,-0.78538 0.28516,-0.80274 z m -33.927737,1.00782 c 0.31578,0.023 0.826321,0.43891 0.974609,0.61914 0.09589,0.11677 0.12674,0.34029 -0.04297,0.41015 -0.281385,0.11514 -0.865946,-0.32146 -1.03711,-0.52148 -0.103602,-0.12195 -0.227548,-0.40261 -0.01563,-0.49024 0.03558,-0.0146 0.07598,-0.0209 0.121094,-0.0176 z m 32.103517,0.26562 c 0.67771,-0.15627 0.29755,1.27165 0.19726,1.53125 -0.1165,0.30132 -0.35702,0.51207 -0.51757,0.78711 -0.51802,0.88751 -1.29305,2.07131 -2.46875,2.11719 -0.27728,0.0176 -0.64104,-0.1841 -0.42188,-0.51172 0.24321,-0.3637 0.92019,-0.48426 1.26953,-0.73438 0.50689,-0.36323 0.93698,-0.99322 1.23242,-1.5371 0.22747,-0.4185 0.12374,-1.51765 0.70899,-1.65235 z m -3.0957,0.30274 c 0.48293,0.0501 0.27834,0.71373 -0.17774,0.66992 -0.63275,-0.0602 -0.31937,-0.72182 0.17774,-0.66992 z m 1.27539,0.70507 c 0.43864,-0.0343 0.24099,0.43664 0.0996,0.64454 -0.22562,0.33192 -0.70891,0.67274 -1.12891,0.66015 -0.30054,-0.0171 -0.44586,-0.28378 -0.22266,-0.51367 0.2494,-0.2568 0.89241,-0.76316 1.25196,-0.79102 z m -30.404301,0.0273 c 0.18884,-0.0501 0.435139,0.16314 0.585938,0.25195 0.502902,0.29345 1.107356,0.44541 1.574219,0.79102 0.144315,0.10666 0.519809,0.46541 0.224609,0.61914 -0.588375,0.30667 -1.870875,-0.63619 -2.279297,-1.00586 -0.121806,-0.10996 -0.423841,-0.57138 -0.105469,-0.65625 z m 0.140625,1.49219 c 0.140433,0.0217 0.277126,0.13396 0.384766,0.20312 0.423477,0.26971 1.071899,0.34654 1.441406,0.65234 0.199093,0.16488 0.273466,0.5476 0.0039,0.68946 -0.37092,0.19518 -1.688682,-0.34875 -1.96875,-0.625 -0.176237,-0.17388 -0.322387,-0.78135 -0.002,-0.90625 0.04633,-0.0181 0.09381,-0.0209 0.140625,-0.0137 z m 35.900386,1.42773 c -0.0917,0.92439 -0.62531,1.59659 -1.16015,2.30273 -1.17271,1.54823 -2.83103,2.72474 -4.71875,3.2793 -0.76182,0.22383 -1.57275,0.35774 -2.36328,0.35742 -0.34057,-1.5e-4 -0.87318,-0.0898 -0.63086,-0.58593 0.0867,-0.17675 0.34775,-0.14631 0.50976,-0.13086 0.49964,0.0462 0.95844,0.0338 1.45508,-0.0586 1.6003,-0.29982 2.89986,-1.30531 4.18164,-2.24023 0.56605,-0.41284 1.15636,-0.98893 1.51953,-1.58985 0.33152,-0.54874 0.44492,-1.30977 1.20703,-1.33398 z m -36.949214,0.0625 c 0.05181,-0.007 0.104968,-0.007 0.160156,0.004 0.913167,0.18805 1.929339,0.84479 2.666016,1.38476 0.218663,0.15979 0.726388,0.87761 0.121094,0.88477 -0.520249,0 -0.956397,-0.42128 -1.392578,-0.63867 -0.580018,-0.28914 -1.368261,-0.35021 -1.859375,-0.81836 -0.30671,-0.29224 -0.058,-0.764 0.304687,-0.81641 z m 0.607422,2.20898 c 0.199567,0.0293 0.431117,0.16659 0.583984,0.22266 0.681528,0.24718 1.418994,0.55298 1.986329,1.01563 0.246194,0.20064 0.555013,0.67585 0.130859,0.86328 -0.670663,0.29631 -2.101551,-0.70792 -2.576172,-1.13672 -0.150492,-0.13573 -0.715439,-0.79585 -0.310547,-0.95117 0.05541,-0.0211 0.119025,-0.0235 0.185547,-0.0137 z m 33.677732,2.33008 c 0.2186,-0.0311 0.27506,0.27442 0.25782,0.42969 -0.0446,0.402 -0.29636,0.95054 -0.57618,1.23828 -1.15006,1.18302 -2.4868,1.36292 -4.04687,1.63867 -0.46153,0.0826 -1.22625,0.33418 -1.67969,0.11719 -0.32845,-0.15634 -0.11153,-0.56529 0.16406,-0.61719 1.55044,-0.29169 3.30811,-0.0486 4.66602,-1.08203 0.32608,-0.24804 0.69807,-0.66807 0.84961,-1.05273 0.0787,-0.20011 0.0838,-0.63114 0.36523,-0.67188 z m -1.15429,0.67188 c 0.0741,0.46422 -0.43876,0.61294 -0.78711,0.76172 -0.89811,0.3833 -1.5454,0.69336 -2.54688,0.69336 0.0328,-0.42089 0.42879,-0.46184 0.78906,-0.53125 0.90208,-0.17386 1.69323,-0.61391 2.54493,-0.92383 z m -0.90821,2.72656 c -0.0688,0.90878 -1.95611,1.15114 -2.66797,1.15234 -0.23345,3.2e-4 -0.565,0.0567 -0.77343,-0.0723 -0.63958,-0.39071 0.52313,-0.60564 0.77343,-0.58985 0.43336,0.0277 0.84728,-9.4e-4 1.26368,-0.15039 0.45094,-0.15461 0.92223,-0.31874 1.40429,-0.33984 z m -16.546872,7.21094 0.06055,0.0605 z"
           id="path1487"
           inkscape:connector-curvature="0"
           sodipodi:nodetypes="cccccccsccccccsccccccccccccccccccccccccccccccccccccccccccccccccccccscccscccccscccccccccccccccscccccccccccccccccccccccccscccccccccccsccccccsccccscccccsccccccccccccccsccccccccccccccccccccccccccsccccccccccccccscccccccccccccccccccccccccccccccccccccsccccccccccccccccccccccccccccccccccccccccccccccccccccccccccccccccccccccccccccccccccccccccccccccccccccccccccccccccccccccccccccccccccccccccccccccccccccccccccccccccccccccccccccccccccc" />
        <path
           id="path7477"
           style="fill:#000000;stroke:none;stroke-width:0.35277799"
           d="m 87.951317,795.05672 c -0.1187,0.0261 -0.22117,0.0892 -0.27149,0.2168 -0.2941,0.75331 1.42164,1.42162 1.95313,1.46875 0.72292,0.0637 1.16917,-0.72308 1.43359,-1.2793 -0.89894,-0.20905 -1.83884,-0.20675 -2.74805,-0.39844 -0.11338,-0.0231 -0.24848,-0.0339 -0.36718,-0.008 z m 2.51757,-3.44531 -1.19531,0.18164 -1.19531,-0.10352 -2.74805,1.50196 c 0.48331,0.87591 1.49709,0.11278 2.26953,0.12695 0.65799,0 1.25927,0.32285 1.91407,0.34766 0.64028,0.0354 1.27679,-0.22701 1.9121,-0.0781 1.01303,0.24094 2.08448,0.81089 3.10743,0.32227 l -1.67383,-1.09961 -2.39063,-1.19922 z m 2.74805,-3.20117 c -1.3624,0.55701 -3.08569,1.09619 -4.42187,0.35351 -0.3189,-0.17716 -1.04141,-0.5411 -1.29688,-0.0762 -0.31535,0.57366 0.80249,0.99207 1.17773,1.09766 1.1498,0.32599 4.8376,0.44945 4.54102,-1.375 z m 4.19141,-5.6211 c 0.69444,-0.11872 0.32398,0.826 -0.36524,0.125 0.14484,-0.0682 0.26603,-0.10804 0.36524,-0.125 z m -13.36524,-1.04687 c 0.41988,-3.5e-4 0.60419,0.82655 0.10352,0.84179 -0.47267,0 -0.57939,-0.84143 -0.10352,-0.84179 z m 15.175776,-0.93753 c -0.30827,-0.0354 -0.74264,0.24182 -0.38867,0.55469 0.42095,0.37063 1.207397,0.40745 1.699217,0.78906 0.47834,0.37134 0.67612,0.83409 1.3164,0.88476 -0.0354,-0.97583 -1.66565,-2.16579 -2.626947,-2.22851 z m -1.874996,-0.37891 c -2.18382,0.13517 -4.43108,2.63241 -1.83203,4.03906 h 0.002 l -0.1211,-0.95507 c 0.59032,0.17716 0.88174,0.77162 1.43945,0.91796 1.547716,0.40535 1.699316,-1.23791 2.863286,-1.63476 0.085,0.3189 0.0992,1.66408 0.583977,1.51172 1.32874,-0.41705 -0.0492,-1.66842 -0.548827,-2.02735 -0.95953,-0.69095 -2.323526,-0.25494 -3.380856,-0.32226 0.34371,-1.01162 1.04116,-0.93736 1.91211,-1.19531 v -0.23829 c -0.29511,-0.0873 -0.60599,-0.11501 -0.91797,-0.0957 z m -13.62304,-0.61719 c -0.85677,0.0673 -1.81167,0.63741 -2.15821,1.31055 -0.35079,0.68386 -0.59295,1.7414 0.32618,2.03125 h 0.002 c 0.61157,-0.70866 1.59071,0.60893 2.6289,0.32227 0.67394,-0.18779 0.90166,-0.92435 1.55469,-1.15821 l -0.12109,1.55274 c 1.08957,-0.0602 2.15933,-0.76156 1.06445,-1.73633 -0.97157,-0.86527 -2.03173,-1.0909 -3.21484,-1.49024 v -0.12109 l 0.71679,-0.35742 v -0.23828 c -0.23757,-0.104 -0.51323,-0.13766 -0.79882,-0.11524 z m 13.21679,-2.10744 c -0.78653,-0.0201 -1.53011,0.0426 -2.13867,0.16797 -0.66485,0.13807 -1.25885,0.5314 -1.91015,0.74024 0.35726,0.63983 1.6244,0.46403 2.26953,0.2832 1.74579,-0.49288 3.818676,-0.54887 5.496083,0.39258 0.73382,0.41174 1.26554,1.11071 2.03125,1.47461 -0.64338,-2.18286 -3.388447,-2.99816 -5.748043,-3.0586 z m -12.06445,-0.5508 c -1.35921,0.0198 -2.62083,0.49467 -2.98242,1.69727 1.93111,-0.71114 2.87646,-1.0687 4.90039,-0.4961 0.92799,0.2622 1.83799,0.96277 1.16016,2.0293 -0.64099,1.00736 -2.44696,-1.64741 -2.95118,-0.21875 1.37197,0.26929 2.87159,1.01086 3.41797,2.39062 0.24094,0.61335 -0.76625,2.18883 0.0664,2.46875 0.32952,0.10985 0.48483,-0.31694 0.53515,-0.55859 0.16654,-0.8015 0.0367,-1.68931 0.12891,-2.50781 0.13819,-1.18169 0.31079,-2.94253 -0.70508,-3.77344 -0.75383,-0.61653 -2.2111,-1.051 -3.57031,-1.03125 z"
           inkscape:connector-curvature="0" />
        <path
           sodipodi:nodetypes="cccccccc"
           style="fill:#f4f2ef;fill-rule:evenodd;stroke:#000000;stroke-width:0.99921262;stroke-linecap:square;stroke-linejoin:miter;stroke-miterlimit:4;stroke-dasharray:none;stroke-opacity:1"
           d="m 82.46025,802.67281 v 0.0937 1.52344 c 6.00592,4.61472 15.72652,1.74787 18.07617,-0.21289 l 0.0703,-0.11328 c -0.89685,-1.16328 -0.85358,-3.80601 -0.57227,-7.2695 -7.9304,9.40952 -14.89046,5.08822 -17.5742,-0.0664 z"
           id="path7479"
           inkscape:connector-curvature="0" />
      </g>
    </g>
  </g>
</svg>
