<svg xmlns="http://www.w3.org/2000/svg" xmlns:xlink="http://www.w3.org/1999/xlink" version="1.2" baseProfile="tiny" viewBox="0 0 225 314" width="225" height="314" fill="#d40000"><rect x="1.0" y="1.0" width="223.0" height="312.0" rx="11.25" ry="11.25" fill="#fefefe" /><defs><path id="suit" d="M28.5 0l20.112 29L28.5 58 8.388 29z" /><path id="numeral" d="M0 32.008V29.27h2.66L8.326 0h3.224l6.24 29.27h2.148v2.738H12.62V29.27h1.98l-.787-4.484H6.427l-.57 4.484h1.978v2.738H0zm13.178-10.416L9.97 5.922l-3.007 15.67h6.215z" /></defs><g class="maxi-card"><use xlink:href="#numeral" transform="translate(7 12)" /><use xlink:href="#suit" transform="matrix(.4 0 0 .4 6 51)" /><use xlink:href="#numeral" transform="matrix(-1 0 0 -1 218 302)" /><use xlink:href="#suit" transform="matrix(-.4 0 0 -.4 218 263)" /><use xlink:href="#suit" transform="translate(84 128.5)" /></g><rect x="1.0" y="1.0" width="223.0" height="312.0" rx="11.25" ry="11.25" fill="none" stroke="black" stroke-width="2" /></svg>