<svg xmlns="http://www.w3.org/2000/svg" xmlns:xlink="http://www.w3.org/1999/xlink" version="1.2" baseProfile="tiny" viewBox="0 0 225 314" width="225" height="314" fill="#d40000"><rect x="1.0" y="1.0" width="223.0" height="312.0" rx="11.25" ry="11.25" fill="#fefefe" /><defs><path id="suit" d="M28.5 0l20.112 29L28.5 58 8.388 29z" /><path id="numeral" d="M10.34 31.817v-2.812h2.585V24.37H0V21.1L13.986 0l2.285.008v21.09h3.96v3.27h-3.96l-.07 4.638h2.166v2.812H10.34zM12.925 7.72l-8.88 13.377h8.88V7.72z" /></defs><g class="mini-card"><use xlink:href="#numeral" transform="matrix(3.5 0 0 3.5 78.4 33.95)" /><use xlink:href="#suit" transform="matrix(2 0 0 2 55.5 170)" /></g><rect x="1.0" y="1.0" width="223.0" height="312.0" rx="11.25" ry="11.25" fill="none" stroke="black" stroke-width="2" /></svg>