<svg xmlns="http://www.w3.org/2000/svg" xmlns:xlink="http://www.w3.org/1999/xlink" version="1.2" baseProfile="tiny" viewBox="0 0 225 314" width="225" height="314" fill="#d40000"><rect x="1.0" y="1.0" width="223.0" height="312.0" rx="11.25" ry="11.25" fill="#fefefe" /><defs><path id="suit" d="M28.5 0l20.112 29L28.5 58 8.388 29z" /><path id="numeral" d="M19.876 0H9.636v3.498h3.808s-.045-.664-.012 7.14c.02 5.474.016 8.968-.05 11.267.02 3.062-.485 4.936-1.69 6.06-1.908 1.605-5.64 1.444-7.02-.066-1.022-1.19-1.238-3.46-1.177-6.13H.015s.003 1.29 0 1.97C-.588 36.34 16.28 34.2 16.82 25.42c.112-1.877.056-1.194.01-11.598-.05-11.146-.01-10.32-.01-10.32h3.056V0z" /></defs><g class="mini-card"><use xlink:href="#numeral" transform="matrix(3.5 0 0 3.5 78.4 33.95)" /><use xlink:href="#suit" transform="matrix(2 0 0 2 55.5 170)" /></g><rect x="1.0" y="1.0" width="223.0" height="312.0" rx="11.25" ry="11.25" fill="none" stroke="black" stroke-width="2" /></svg>