<svg xmlns="http://www.w3.org/2000/svg" xmlns:xlink="http://www.w3.org/1999/xlink" version="1.2" baseProfile="tiny" viewBox="0 0 225 314" width="225" height="314"><rect x="1.0" y="1.0" width="223.0" height="312.0" rx="11.25" ry="11.25" fill="#fefefe" /><defs><path id="suit" d="M26.406 40.187c.015-1.98-1.56-2.017-1.542-.573-.133 7.257-6.31 10.83-10.8 9.982-6.92-1.307-9.128-8.13-9.06-12.148C5.204 25.046 17.774 15.9 29.114 0c8.31 14.35 22.03 25.623 22.84 36.717 1.08 14.75-17.71 20.25-20.394 3.06-.172-1.214-1.612-1.76-1.5-.063.408 4.71-.17 6.674 5.18 18.287H21.25c3.1-5.42 4.943-12.09 5.154-17.81z" /><path id="numeral" d="M19.876 0H9.636v3.498h3.808s-.045-.664-.012 7.14c.02 5.474.016 8.968-.05 11.267.02 3.062-.485 4.936-1.69 6.06-1.908 1.605-5.64 1.444-7.02-.066-1.022-1.19-1.238-3.46-1.177-6.13H.015s.003 1.29 0 1.97C-.588 36.34 16.28 34.2 16.82 25.42c.112-1.877.056-1.194.01-11.598-.05-11.146-.01-10.32-.01-10.32h3.056V0z" /></defs><g class="mini-card"><use xlink:href="#numeral" transform="matrix(3.5 0 0 3.5 78.4 33.95)" /><use xlink:href="#suit" transform="matrix(2 0 0 2 55.5 170)" /></g><rect x="1.0" y="1.0" width="223.0" height="312.0" rx="11.25" ry="11.25" fill="none" stroke="black" stroke-width="2" /></svg>