<svg xmlns="http://www.w3.org/2000/svg" xmlns:xlink="http://www.w3.org/1999/xlink" version="1.2" baseProfile="tiny" viewBox="0 0 225 314" width="225" height="314"><rect x="1.0" y="1.0" width="223.0" height="312.0" rx="11.25" ry="11.25" fill="#fefefe" /><defs><path id="suit" d="M20.976 57.14c2.88-5.774 4.976-11.7 5.348-18.036.342-2.33-1.074-2.37-1.288-.73C20.96 53.97-.727 49.744.02 35.08.622 23.182 12.44 20.624 18.6 24.513c2.435 1.434 2.296.575.968-.91C10.416 13.39 15.958.24 28.33 0c13.38.793 16.854 14.87 8.647 23.147-1.02.994-3.283 4.19.123 1.956 8.287-5.888 19.787.443 19.553 9.52-.434 16.74-20.84 17.987-25.203 4.007-.42-1.55-1.63-2.328-1.295.305.604 4.767 1.855 11.953 5.438 18.205H20.976z" /><path id="numeral" d="M0 0v2.87h2.937v24.98H0v3.092h8.532V27.85h-2.26v-7.086l3.426-4.75 5.14 11.835h-3.28v3.09h9.305v-3.09h-2.226l-6.814-15.22 6.474-9.81 2.4.042V0h-9.24v2.87h2.663L6.27 14.917V2.87H8.6V0z" /></defs><g class="mini-card"><use xlink:href="#numeral" transform="matrix(3.5 0 0 3.5 78.4 33.95)" /><use xlink:href="#suit" transform="matrix(2 0 0 2 55.5 170)" /></g><rect x="1.0" y="1.0" width="223.0" height="312.0" rx="11.25" ry="11.25" fill="none" stroke="black" stroke-width="2" /></svg>