<svg xmlns="http://www.w3.org/2000/svg" xmlns:xlink="http://www.w3.org/1999/xlink" version="1.2" baseProfile="tiny" viewBox="0 0 225 314" width="225" height="314" fill="#d40000"><rect x="1.0" y="1.0" width="223.0" height="312.0" rx="11.25" ry="11.25" fill="#fefefe" /><defs><path id="suit" d="M28.5 0l20.112 29L28.5 58 8.388 29z" /><path id="numeral" d="M0 0v2.87h2.937v24.98H0v3.092h8.532V27.85h-2.26v-7.086l3.426-4.75 5.14 11.835h-3.28v3.09h9.305v-3.09h-2.226l-6.814-15.22 6.474-9.81 2.4.042V0h-9.24v2.87h2.663L6.27 14.917V2.87H8.6V0z" /></defs><g class="mini-card"><use xlink:href="#numeral" transform="matrix(3.5 0 0 3.5 78.4 33.95)" /><use xlink:href="#suit" transform="matrix(2 0 0 2 55.5 170)" /></g><rect x="1.0" y="1.0" width="223.0" height="312.0" rx="11.25" ry="11.25" fill="none" stroke="black" stroke-width="2" /></svg>